<?xml version="1.0" encoding="utf-8"?>
<!-- Generator: Adobe Illustrator 16.0.0, SVG Export Plug-In . SVG Version: 6.00 Build 0)  -->
<!DOCTYPE svg PUBLIC "-//W3C//DTD SVG 1.1//EN" "http://www.w3.org/Graphics/SVG/1.1/DTD/svg11.dtd">
<svg xmlns="http://www.w3.org/2000/svg" viewBox="0 0 110 101" width="110" height="101" preserveAspectRatio="xMidYMid meet" style="width: 100%; height: 100%; transform: translate3d(0px, 0px, 0px);">
    <defs>
        <clipPath id="__lottie_element_84">
            <rect width="110" height="101" x="0" y="0"></rect>
        </clipPath>
        <clipPath id="__lottie_element_86">
            <path d="M0,0 L220,0 L220,201 L0,201z"></path>
        </clipPath>
        <linearGradient id="__lottie_element_92" spreadMethod="pad" gradientUnits="userSpaceOnUse">
            <stop></stop>
            <stop></stop>
            <stop></stop>
            <stop></stop>
            <stop></stop>
        </linearGradient>
        <linearGradient id="__lottie_element_96" spreadMethod="pad" gradientUnits="userSpaceOnUse">
            <stop></stop>
            <stop></stop>
            <stop></stop>
        </linearGradient>
        <linearGradient id="__lottie_element_100" spreadMethod="pad" gradientUnits="userSpaceOnUse">
            <stop></stop>
            <stop></stop>
            <stop></stop>
        </linearGradient>
        <linearGradient id="__lottie_element_104" spreadMethod="pad" gradientUnits="userSpaceOnUse">
            <stop></stop>
            <stop></stop>
            <stop></stop>
            <stop></stop>
            <stop></stop>
        </linearGradient>
        <linearGradient id="__lottie_element_108" spreadMethod="pad" gradientUnits="userSpaceOnUse">
            <stop></stop>
            <stop></stop>
            <stop></stop>
        </linearGradient>
        <linearGradient id="__lottie_element_112" spreadMethod="pad" gradientUnits="userSpaceOnUse">
            <stop></stop>
            <stop></stop>
            <stop></stop>
        </linearGradient>
        <linearGradient id="__lottie_element_116" spreadMethod="pad" gradientUnits="userSpaceOnUse">
            <stop></stop>
            <stop></stop>
            <stop></stop>
            <stop></stop>
            <stop></stop>
        </linearGradient>
        <linearGradient id="__lottie_element_120" spreadMethod="pad" gradientUnits="userSpaceOnUse">
            <stop></stop>
            <stop></stop>
            <stop></stop>
        </linearGradient>
        <linearGradient id="__lottie_element_124" spreadMethod="pad" gradientUnits="userSpaceOnUse">
            <stop></stop>
            <stop></stop>
            <stop></stop>
        </linearGradient>
        <clipPath id="__lottie_element_126">
            <path d="M0,0 L220,0 L220,201 L0,201z"></path>
        </clipPath>
        <linearGradient id="__lottie_element_132" spreadMethod="pad" gradientUnits="userSpaceOnUse" x1="-7.289999961853027" y1="-5.668000221252441" x2="19.691999435424805" y2="13.057000160217285">
            <stop offset="0%" stop-color="rgb(250,217,97)"></stop>
            <stop offset="18%" stop-color="rgb(249,199,86)"></stop>
            <stop offset="35%" stop-color="rgb(249,182,75)"></stop>
            <stop offset="68%" stop-color="rgb(248,145,52)"></stop>
            <stop offset="100%" stop-color="rgb(247,107,28)"></stop>
        </linearGradient>
        <linearGradient id="__lottie_element_136" spreadMethod="pad" gradientUnits="userSpaceOnUse" x1="-25.913000106811523" y1="-11.477999687194824" x2="14.57800006866455" y2="14.185999870300293">
            <stop offset="0%" stop-color="rgb(38,17,231)"></stop>
            <stop offset="50%" stop-color="rgb(73,98,223)"></stop>
            <stop offset="100%" stop-color="rgb(109,180,215)"></stop>
        </linearGradient>
        <linearGradient id="__lottie_element_140" spreadMethod="pad" gradientUnits="userSpaceOnUse" x1="-17.04199981689453" y1="-7.046000003814697" x2="18.822999954223633" y2="14.012999534606934">
            <stop offset="0%" stop-color="rgb(17,128,231)"></stop>
            <stop offset="50%" stop-color="rgb(113,179,236)"></stop>
            <stop offset="100%" stop-color="rgb(209,230,240)"></stop>
        </linearGradient>
        <linearGradient id="__lottie_element_144" spreadMethod="pad" gradientUnits="userSpaceOnUse" x1="-7.289999961853027" y1="-5.668000221252441" x2="19.691999435424805" y2="13.057000160217285">
            <stop offset="0%" stop-color="rgb(250,217,97)"></stop>
            <stop offset="18%" stop-color="rgb(249,199,86)"></stop>
            <stop offset="35%" stop-color="rgb(249,182,75)"></stop>
            <stop offset="68%" stop-color="rgb(248,145,52)"></stop>
            <stop offset="100%" stop-color="rgb(247,107,28)"></stop>
        </linearGradient>
        <linearGradient id="__lottie_element_148" spreadMethod="pad" gradientUnits="userSpaceOnUse" x1="-25.913000106811523" y1="-11.477999687194824" x2="14.57800006866455" y2="14.185999870300293">
            <stop offset="0%" stop-color="rgb(38,17,231)"></stop>
            <stop offset="50%" stop-color="rgb(73,98,223)"></stop>
            <stop offset="100%" stop-color="rgb(109,180,215)"></stop>
        </linearGradient>
        <linearGradient id="__lottie_element_152" spreadMethod="pad" gradientUnits="userSpaceOnUse" x1="-17.04199981689453" y1="-7.046000003814697" x2="18.822999954223633" y2="14.012999534606934">
            <stop offset="0%" stop-color="rgb(17,128,231)"></stop>
            <stop offset="50%" stop-color="rgb(113,179,236)"></stop>
            <stop offset="100%" stop-color="rgb(209,230,240)"></stop>
        </linearGradient>
        <linearGradient id="__lottie_element_156" spreadMethod="pad" gradientUnits="userSpaceOnUse">
            <stop></stop>
            <stop></stop>
            <stop></stop>
            <stop></stop>
            <stop></stop>
        </linearGradient>
        <linearGradient id="__lottie_element_160" spreadMethod="pad" gradientUnits="userSpaceOnUse">
            <stop></stop>
            <stop></stop>
            <stop></stop>
        </linearGradient>
        <linearGradient id="__lottie_element_164" spreadMethod="pad" gradientUnits="userSpaceOnUse">
            <stop></stop>
            <stop></stop>
            <stop></stop>
        </linearGradient>
    </defs>
    <g clip-path="url(#__lottie_element_84)">
        <g clip-path="url(#__lottie_element_126)" transform="matrix(0.5,0,0,0.5,0,0.25)" opacity="1" style="display: block;">
            <g style="display: none;">
                <g>
                    <path fill="url(#__lottie_element_164)"></path>
                    <g></g>
                </g>
            </g>
            <g style="display: none;">
                <g>
                    <path fill="url(#__lottie_element_160)"></path>
                    <g></g>
                </g>
            </g>
            <g style="display: none;">
                <g>
                    <path fill="url(#__lottie_element_156)"></path>
                    <g></g>
                </g>
            </g>
            <g style="display: block;" transform="matrix(5.829840660095215,0,0,5.829840660095215,13.114784240722656,-1.1064300537109375)" opacity="1">
                <g opacity="1" transform="matrix(1,0,0,1,17.280000686645508,23.20199966430664)">
                    <path fill="url(#__lottie_element_152)" fill-opacity="1"
                          d=" M0.9200000166893005,-10.404999732971191 C0.9200000166893005,-10.404999732971191 16.65399932861328,-0.8820000290870667 16.65399932861328,-0.8820000290870667 C17.132999420166016,-0.5920000076293945 17.285999298095703,0.03200000151991844 16.996000289916992,0.5120000243186951 C16.91200065612793,0.6510000228881836 16.79599952697754,0.7670000195503235 16.658000946044922,0.8519999980926514 C16.658000946044922,0.8519999980926514 0.9300000071525574,10.498000144958496 0.9300000071525574,10.498000144958496 C0.2759999930858612,10.89799976348877 -0.5460000038146973,10.897000312805176 -1.1979999542236328,10.494000434875488 C-1.1979999542236328,10.494000434875488 -16.798999786376953,0.8500000238418579 -16.798999786376953,0.8500000238418579 C-17.275999069213867,0.5550000071525574 -17.42300033569336,-0.07100000232458115 -17.128000259399414,-0.5479999780654907 C-17.04400062561035,-0.6830000281333923 -16.93000030517578,-0.796999990940094 -16.79400062561035,-0.8799999952316284 C-16.79400062561035,-0.8799999952316284 -1.187999963760376,-10.402000427246094 -1.187999963760376,-10.402000427246094 C-0.5410000085830688,-10.79699993133545 0.2720000147819519,-10.79800033569336 0.9200000166893005,-10.404999732971191z"></path>
                    <g opacity="1" transform="matrix(1,0,0,1,0,0)"></g>
                </g>
            </g>
            <g style="display: block;" transform="matrix(5.801904201507568,0,0,5.801904201507568,13.595626831054688,-0.62628173828125)" opacity="1">
                <g opacity="1" transform="matrix(1,0,0,1,17.280000686645508,17.200000762939453)">
                    <path fill="url(#__lottie_element_148)" fill-opacity="1"
                          d=" M0.9200000166893005,-10.491999626159668 C0.9200000166893005,-10.491999626159668 16.65399932861328,-0.968999981880188 16.65399932861328,-0.968999981880188 C17.132999420166016,-0.6790000200271606 17.285999298095703,-0.054999999701976776 16.996000289916992,0.42500001192092896 C16.91200065612793,0.5630000233650208 16.79599952697754,0.6790000200271606 16.658000946044922,0.7639999985694885 C16.658000946044922,0.7639999985694885 0.9300000071525574,10.41100025177002 0.9300000071525574,10.41100025177002 C0.2759999930858612,10.810999870300293 -0.5460000038146973,10.8100004196167 -1.1979999542236328,10.406999588012695 C-1.1979999542236328,10.406999588012695 -16.798999786376953,0.7620000243186951 -16.798999786376953,0.7620000243186951 C-17.275999069213867,0.46799999475479126 -17.42300033569336,-0.15800000727176666 -17.128000259399414,-0.6349999904632568 C-17.04400062561035,-0.7699999809265137 -16.93000030517578,-0.8840000033378601 -16.79400062561035,-0.9670000076293945 C-16.79400062561035,-0.9670000076293945 -1.187999963760376,-10.48799991607666 -1.187999963760376,-10.48799991607666 C-0.5410000085830688,-10.883000373840332 0.2720000147819519,-10.885000228881836 0.9200000166893005,-10.491999626159668z"></path>
                    <g opacity="1" transform="matrix(1,0,0,1,0,0)"></g>
                </g>
            </g>
            <g style="display: block;" transform="matrix(5.738205432891846,0,0,5.738205432891846,14.692008972167969,0.4648017883300781)" opacity="1">
                <g opacity="1" transform="matrix(1,0,0,1,17.280000686645508,11.12399959564209)">
                    <path fill="url(#__lottie_element_144)" fill-opacity="1"
                          d=" M0.9200000166893005,-10.505000114440918 C0.9200000166893005,-10.505000114440918 16.65399932861328,-0.9819999933242798 16.65399932861328,-0.9819999933242798 C17.132999420166016,-0.6919999718666077 17.285999298095703,-0.06700000166893005 16.996000289916992,0.41200000047683716 C16.91200065612793,0.5509999990463257 16.79599952697754,0.6669999957084656 16.658000946044922,0.7509999871253967 C16.658000946044922,0.7509999871253967 0.9300000071525574,10.397000312805176 0.9300000071525574,10.397000312805176 C0.2759999930858612,10.79800033569336 -0.5460000038146973,10.79699993133545 -1.1979999542236328,10.394000053405762 C-1.1979999542236328,10.394000053405762 -16.798999786376953,0.75 -16.798999786376953,0.75 C-17.275999069213867,0.45500001311302185 -17.42300033569336,-0.17000000178813934 -17.128000259399414,-0.6470000147819519 C-17.04400062561035,-0.7829999923706055 -16.93000030517578,-0.8970000147819519 -16.79400062561035,-0.9800000190734863 C-16.79400062561035,-0.9800000190734863 -1.187999963760376,-10.501999855041504 -1.187999963760376,-10.501999855041504 C-0.5410000085830688,-10.897000312805176 0.2720000147819519,-10.89799976348877 0.9200000166893005,-10.505000114440918z"></path>
                    <g opacity="1" transform="matrix(1,0,0,1,0,0)"></g>
                </g>
            </g>
            <g transform="matrix(0.00003084724448854104,0,0,0.00003084724448854104,113.45746612548828,98.94947052001953)" opacity="1" style="display: none;">
                <g opacity="1" transform="matrix(1,0,0,1,17.280000686645508,23.20199966430664)">
                    <path fill="url(#__lottie_element_140)" fill-opacity="1"
                          d=" M0.9200000166893005,-10.404999732971191 C0.9200000166893005,-10.404999732971191 16.65399932861328,-0.8820000290870667 16.65399932861328,-0.8820000290870667 C17.132999420166016,-0.5920000076293945 17.285999298095703,0.03200000151991844 16.996000289916992,0.5120000243186951 C16.91200065612793,0.6510000228881836 16.79599952697754,0.7670000195503235 16.658000946044922,0.8519999980926514 C16.658000946044922,0.8519999980926514 0.9300000071525574,10.498000144958496 0.9300000071525574,10.498000144958496 C0.2759999930858612,10.89799976348877 -0.5460000038146973,10.897000312805176 -1.1979999542236328,10.494000434875488 C-1.1979999542236328,10.494000434875488 -16.798999786376953,0.8500000238418579 -16.798999786376953,0.8500000238418579 C-17.275999069213867,0.5550000071525574 -17.42300033569336,-0.07100000232458115 -17.128000259399414,-0.5479999780654907 C-17.04400062561035,-0.6830000281333923 -16.93000030517578,-0.796999990940094 -16.79400062561035,-0.8799999952316284 C-16.79400062561035,-0.8799999952316284 -1.187999963760376,-10.402000427246094 -1.187999963760376,-10.402000427246094 C-0.5410000085830688,-10.79699993133545 0.2720000147819519,-10.79800033569336 0.9200000166893005,-10.404999732971191z"></path>
                    <g opacity="1" transform="matrix(1,0,0,1,0,0)"></g>
                </g>
            </g>
            <g transform="matrix(0.0011429343139752746,0,0,0.0011429343139752746,113.4383316040039,98.92638397216797)" opacity="1" style="display: none;">
                <g opacity="1" transform="matrix(1,0,0,1,17.280000686645508,17.200000762939453)">
                    <path fill="url(#__lottie_element_136)" fill-opacity="1"
                          d=" M0.9200000166893005,-10.491999626159668 C0.9200000166893005,-10.491999626159668 16.65399932861328,-0.968999981880188 16.65399932861328,-0.968999981880188 C17.132999420166016,-0.6790000200271606 17.285999298095703,-0.054999999701976776 16.996000289916992,0.42500001192092896 C16.91200065612793,0.5630000233650208 16.79599952697754,0.6790000200271606 16.658000946044922,0.7639999985694885 C16.658000946044922,0.7639999985694885 0.9300000071525574,10.41100025177002 0.9300000071525574,10.41100025177002 C0.2759999930858612,10.810999870300293 -0.5460000038146973,10.8100004196167 -1.1979999542236328,10.406999588012695 C-1.1979999542236328,10.406999588012695 -16.798999786376953,0.7620000243186951 -16.798999786376953,0.7620000243186951 C-17.275999069213867,0.46799999475479126 -17.42300033569336,-0.15800000727176666 -17.128000259399414,-0.6349999904632568 C-17.04400062561035,-0.7699999809265137 -16.93000030517578,-0.8840000033378601 -16.79400062561035,-0.9670000076293945 C-16.79400062561035,-0.9670000076293945 -1.187999963760376,-10.48799991607666 -1.187999963760376,-10.48799991607666 C-0.5410000085830688,-10.883000373840332 0.2720000147819519,-10.885000228881836 0.9200000166893005,-10.491999626159668z"></path>
                    <g opacity="1" transform="matrix(1,0,0,1,0,0)"></g>
                </g>
            </g>
            <g transform="matrix(0.0014419774524867535,0,0,0.0014419774524867535,113.43318176269531,98.92024993896484)" opacity="1" style="display: none;">
                <g opacity="1" transform="matrix(1,0,0,1,17.280000686645508,11.12399959564209)">
                    <path fill="url(#__lottie_element_132)" fill-opacity="1"
                          d=" M0.9200000166893005,-10.505000114440918 C0.9200000166893005,-10.505000114440918 16.65399932861328,-0.9819999933242798 16.65399932861328,-0.9819999933242798 C17.132999420166016,-0.6919999718666077 17.285999298095703,-0.06700000166893005 16.996000289916992,0.41200000047683716 C16.91200065612793,0.5509999990463257 16.79599952697754,0.6669999957084656 16.658000946044922,0.7509999871253967 C16.658000946044922,0.7509999871253967 0.9300000071525574,10.397000312805176 0.9300000071525574,10.397000312805176 C0.2759999930858612,10.79800033569336 -0.5460000038146973,10.79699993133545 -1.1979999542236328,10.394000053405762 C-1.1979999542236328,10.394000053405762 -16.798999786376953,0.75 -16.798999786376953,0.75 C-17.275999069213867,0.45500001311302185 -17.42300033569336,-0.17000000178813934 -17.128000259399414,-0.6470000147819519 C-17.04400062561035,-0.7829999923706055 -16.93000030517578,-0.8970000147819519 -16.79400062561035,-0.9800000190734863 C-16.79400062561035,-0.9800000190734863 -1.187999963760376,-10.501999855041504 -1.187999963760376,-10.501999855041504 C-0.5410000085830688,-10.897000312805176 0.2720000147819519,-10.89799976348877 0.9200000166893005,-10.505000114440918z"></path>
                    <g opacity="1" transform="matrix(1,0,0,1,0,0)"></g>
                </g>
            </g>
        </g>
        <g clip-path="url(#__lottie_element_86)" style="display: none;">
            <g style="display: none;">
                <g>
                    <path fill="url(#__lottie_element_124)"></path>
                    <g></g>
                </g>
            </g>
            <g style="display: none;">
                <g>
                    <path fill="url(#__lottie_element_120)"></path>
                    <g></g>
                </g>
            </g>
            <g style="display: none;">
                <g>
                    <path fill="url(#__lottie_element_116)"></path>
                    <g></g>
                </g>
            </g>
            <g style="display: none;">
                <g>
                    <path fill="url(#__lottie_element_112)"></path>
                    <g></g>
                </g>
            </g>
            <g style="display: none;">
                <g>
                    <path fill="url(#__lottie_element_108)"></path>
                    <g></g>
                </g>
            </g>
            <g style="display: none;">
                <g>
                    <path fill="url(#__lottie_element_104)"></path>
                    <g></g>
                </g>
            </g>
            <g style="display: none;">
                <g>
                    <path fill="url(#__lottie_element_100)"></path>
                    <g></g>
                </g>
            </g>
            <g style="display: none;">
                <g>
                    <path fill="url(#__lottie_element_96)"></path>
                    <g></g>
                </g>
            </g>
            <g style="display: none;">
                <g>
                    <path fill="url(#__lottie_element_92)"></path>
                    <g></g>
                </g>
            </g>
        </g>
    </g>
</svg>