<?xml version="1.0" encoding="utf-8"?>
<!-- Generator: Adobe Illustrator 16.0.0, SVG Export Plug-In . SVG Version: 6.00 Build 0)  -->
<!DOCTYPE svg PUBLIC "-//W3C//DTD SVG 1.1//EN" "http://www.w3.org/Graphics/SVG/1.1/DTD/svg11.dtd">
<svg version="1.1" id="Calque_1" xmlns="http://www.w3.org/2000/svg" xmlns:xlink="http://www.w3.org/1999/xlink" x="0px" y="0px"
	 width="436.213px" height="436.21px" viewBox="0 -3 436.213 436.21" enable-background="new 0 -3 436.213 436.21"
	 xml:space="preserve">
<path fill="#42A9E0" d="M209.567,383.13c0,0-179.582-101.021-192.417-108.229c-12.836-7.229-0.114-14.375-0.114-14.375
	l202.045-113.645c0,0,189.047,106.316,201.903,113.559c12.867,7.227,0.031,14.465,0.031,14.465S236.396,378.742,228.469,383.197
	C219.078,388.478,209.567,383.13,209.567,383.13z"/>
<path d="M209.584,337.478c0,0-179.598-101.012-192.433-108.229c-12.836-7.219,0-14.439,0-14.439l201.944-113.592
	c0,0,189.034,106.333,201.887,113.562c12.868,7.242,0.032,14.473,0.032,14.473S236.626,332.974,228.601,337.474
	C219.078,342.832,209.584,337.478,209.584,337.478z"/>
<path fill="#FFCC04" d="M209.567,288.343c0,0-179.582-101.02-192.417-108.237s0-14.446,0-14.446S199.992,62.813,209.535,57.449
	c9.543-5.357,18.775-0.168,18.775-0.168l147.659,83.217c0,0,16.896,5.451,33.302-3.477c1.347-0.727,3.77-2.256,3.762,2.986
	c-0.059,50.298-65.048,81.425-65.048,81.425s-109.857,61.587-119.39,66.929C219.078,293.697,209.567,288.343,209.567,288.343z"/>
</svg>
