<svg xmlns="http://www.w3.org/2000/svg" width="12" height="12" viewBox="0 0 12 12">
    <g fill="none" fill-rule="nonzero">
        <path stroke="#FFF" stroke-width=".01" d="M.005.005h11.99v11.99H.005z"/>
        <path fill="#FFF" d="M10.588 5.151a.6.6 0 1 1 .824.873l-4.577 4.317c-1.398 1.319-3.652 1.319-5.051 0a3.307 3.307 0 0 1 0-4.86L6.36 1.163a2.679 2.679 0 0 1 3.642 0c1.03.97 1.03 2.56 0 3.532L5.421 9.012a1.64 1.64 0 0 1-2.233 0 1.502 1.502 0 0 1 0-2.203l4.228-3.983a.6.6 0 1 1 .823.874L4.012 7.682a.303.303 0 0 0 0 .457.44.44 0 0 0 .586 0l4.581-4.317a1.205 1.205 0 0 0 0-1.785 1.48 1.48 0 0 0-1.995 0L2.607 6.353a2.108 2.108 0 0 0 0 3.115c.937.883 2.469.883 3.405 0l4.576-4.317z"/>
    </g>
</svg>
