<svg xmlns="http://www.w3.org/2000/svg" xmlns:xlink="http://www.w3.org/1999/xlink" width="37" height="34" viewBox="0 0 37 34">
    <defs>
        <path id="b" d="M12.367.843l9.771 16.994a1 1 0 0 1-.867 1.499H1.73a1 1 0 0 1-.867-1.499L10.633.843a1 1 0 0 1 1.734 0z"/>
        <filter id="a" width="220.7%" height="236.9%" x="-60.3%" y="-57.9%" filterUnits="objectBoundingBox">
            <feOffset dy="2" in="SourceAlpha" result="shadowOffsetOuter1"/>
            <feGaussianBlur in="shadowOffsetOuter1" result="shadowBlurOuter1" stdDeviation="4"/>
            <feColorMatrix in="shadowBlurOuter1" values="0 0 0 0 1 0 0 0 0 0.243484939 0 0 0 0 0.198567708 0 0 0 0.351873868 0"/>
        </filter>
    </defs>
    <g fill="none" fill-rule="evenodd">
        <g fill-rule="nonzero" transform="translate(7 5)">
            <use fill="#000" filter="url(#a)" xlink:href="#b"/>
            <use fill="#ff8501" xlink:href="#b"/>
        </g>
        <path fill="#FFF" d="M17.716 18.097l-.712-4.859A1.081 1.081 0 0 1 18.074 12h.853a1.081 1.081 0 0 1 1.069 1.247l-.755 4.851a.775.775 0 0 1-.765.656.768.768 0 0 1-.76-.657zm.74 3.903c-.313 0-.578-.104-.795-.311a1.01 1.01 0 0 1-.325-.758c0-.297.109-.55.325-.76a1.1 1.1 0 0 1 .795-.315c.304 0 .564.106.78.318.217.212.326.464.326.757s-.109.544-.325.754c-.217.21-.477.315-.781.315z"/>
    </g>
</svg>
