<?xml version="1.0" encoding="UTF-8"?>
<svg width="27px" height="27px" viewBox="0 0 27 27" version="1.1" xmlns="http://www.w3.org/2000/svg" xmlns:xlink="http://www.w3.org/1999/xlink">
    <!-- Generator: Sketch 53.2 (72643) - https://sketchapp.com -->
    <title>Group 31 Copy 2</title>
    <desc>Created with Sketch.</desc>
    <g id="Dashboard" stroke="none" stroke-width="1" fill="none" fill-rule="evenodd">
        <g id="Kit" transform="translate(-60.000000, -564.000000)" fill-rule="nonzero">
            <g id="Group-31-Copy-2" transform="translate(60.000000, 564.000000)">
                <rect id="Rectangle" fill="#F4F4F9" x="0" y="0" width="27" height="27"></rect>
                <path d="M12.9730101,10.7288196 L13.7376033,9.3722374 C13.9871756,8.92943282 13.8305299,8.36815044 13.3877253,8.11857811 C13.2498016,8.04084191 13.0941567,8 12.9358347,8 L12.9060764,8 C12.394501,8 11.9797872,8.41471381 11.9797872,8.92628922 C11.9797872,9.08898249 12.0226378,9.24880606 12.1040273,9.38967781 L17.4119,18.5767286 C17.6456418,18.981297 18.1630943,19.1197793 18.5676627,18.8860375 C18.7060634,18.8060757 18.8189802,18.6885421 18.8933347,18.5470498 L18.8933347,18.5470498 C19.1315107,18.093815 18.957171,17.5333157 18.5039361,17.2951398 C18.3709315,17.2252455 18.2229316,17.1887261 18.0726804,17.1887261 L7.92867903,17.1887261 C7.41581942,17.1887261 7.00006456,17.604481 7.00006456,18.1173406 C7.00006456,18.2669773 7.03622571,18.4143979 7.10546897,18.5470498 L7.10546897,18.5470498 C7.31766942,18.9535702 7.81924173,19.1110976 8.22576208,18.8988971 C8.36847247,18.8244034 8.4864503,18.7100305 8.56533543,18.5696998 L12.9553806,10.7601399 C12.9612512,10.7496965 12.9671277,10.7392564 12.9730101,10.7288196 Z" id="Triangle-Copy" stroke="#FF3E33"></path>
            </g>
        </g>
    </g>
</svg>