<?xml version="1.0" encoding="UTF-8"?>
<svg width="27px" height="27px" viewBox="0 0 27 27" version="1.1" xmlns="http://www.w3.org/2000/svg" xmlns:xlink="http://www.w3.org/1999/xlink">
    <!-- Generator: Sketch 53.2 (72643) - https://sketchapp.com -->
    <title>Group 31 Copy</title>
    <desc>Created with Sketch.</desc>
    <g id="Dashboard" stroke="none" stroke-width="1" fill="none" fill-rule="evenodd">
        <g id="Kit" transform="translate(-60.000000, -233.000000)" fill-rule="nonzero">
            <g id="Group-3-Copy-3" transform="translate(31.000000, 116.000000)">
                <g id="Group-31-Copy" transform="translate(29.000000, 117.000000)">
                    <rect id="Rectangle" fill="#F4F4F9" x="0" y="0" width="27" height="27"></rect>
                    <path d="M10.4364176,11.4461773 L14.9548119,10.4991575 C15.4953516,10.3858646 16.0253876,10.7322166 16.1386805,11.2727563 C16.1670352,11.4080413 16.1670355,11.5477356 16.1386816,11.6830207 L15.1916745,16.2014759 C15.0783846,16.7420162 14.5483505,17.0883711 14.0078101,16.9750812 C13.8176476,16.9352257 13.643214,16.8408361 13.5058282,16.7034483 L9.93444095,13.132013 C9.54391929,12.7414861 9.54392356,12.1083211 9.93445048,11.7177994 C10.0718337,11.5804181 10.2462616,11.4860325 10.4364176,11.4461773 Z" id="Rectangle" fill="#687583" transform="translate(12.818940, 13.818940) rotate(-315.000000) translate(-12.818940, -13.818940) "></path>
                </g>
            </g>
        </g>
    </g>
</svg>