<svg xmlns="http://www.w3.org/2000/svg" width="18px" height="20px" viewBox="0 0 18 20">
    <g stroke="none" stroke-width="1" fill="none" fill-rule="evenodd">
        <g transform="translate(-1312.000000, -24.000000)" fill="#ACB5C0" fill-rule="nonzero">
            <g transform="translate(1312.000000, 8.000000)">
                <path d="M6.3,34.1217391 L11.7,34.1217391 C11.25,35.2486957 10.17,36 9,36 C7.83,36 6.75,35.2486957 6.3,34.1217391 Z M17.64,30.9286957 L16.74,29.9895652 C16.38,29.613913 16.2,29.1443478 16.2,28.6747826 L16.2,23.5130435 C16.2,19.3808696 12.96,16 9,16 C5.04,16 1.8,19.3808696 1.8,23.5130435 L1.8,28.6747826 C1.8,29.1443478 1.62,29.613913 1.26,29.9895652 L0.36,30.9286957 C0.09,31.2104348 0,31.586087 0,31.9617391 L0,33.2765217 L18,33.2765217 L18,31.9617391 C18,31.4921739 17.82,31.1165217 17.64,30.9286957 Z"
                      id="Shape"></path>
            </g>
        </g>
    </g>
</svg>