<?xml version="1.0" encoding="UTF-8"?>
<svg width="14px" height="14px" viewBox="0 0 14 14" version="1.1" xmlns="http://www.w3.org/2000/svg" xmlns:xlink="http://www.w3.org/1999/xlink">
    <!-- Generator: Sketch 53.2 (72643) - https://sketchapp.com -->
    <title>110</title>
    <desc>Created with Sketch.</desc>
    <g id="Dashboard" stroke="none" stroke-width="1" fill="none" fill-rule="evenodd">
        <g id="Icon" transform="translate(-712.000000, -223.000000)" fill="#687583" fill-rule="nonzero">
            <g id="110" transform="translate(712.000000, 223.000000)">
                <g id="rss">
                    <path d="M2.01992,9.576 C0.90608,9.576 -2.93098879e-14,10.48096 -2.93098879e-14,11.59592 C-2.93098879e-14,12.70696 0.90608,13.61416 2.01992,13.61416 C3.13376,13.61416 4.03984,12.70752 4.03984,11.59592 C4.03984,10.48096 3.13376,9.576 2.01992,9.576 Z" id="Path"></path>
                    <path d="M0.21,4.44696 C0.09464,4.44696 1.4281909e-12,4.5416 1.4281909e-12,4.65808 L1.4281909e-12,7.22176 C1.4281909e-12,7.33712 0.09464,7.4312 0.21,7.4312 C3.50224,7.4312 6.1824,10.11024 6.1824,13.4036 C6.1824,13.5184 6.27536,13.6136 6.3924,13.6136 L8.95776,13.6136 L8.96672,13.6136 C9.08376,13.6136 9.17784,13.5184 9.17784,13.4036 L9.16776,13.33808 C9.1308,8.43024 5.12512,4.44696 0.21,4.44696 Z" id="Path"></path>
                    <path d="M13.61416,13.33808 C13.57776,5.97576 7.57736,1.95399252e-14 0.21,1.95399252e-14 C0.09464,1.95399252e-14 1.07469589e-12,0.09464 1.07469589e-12,0.21112 L1.07469589e-12,2.84928 C1.07469589e-12,2.9652 0.09464,3.05928 0.21,3.05928 C5.91416,3.05928 10.55432,7.7 10.55432,13.40416 C10.55432,13.51896 10.6484,13.61416 10.7632,13.61416 L13.40248,13.61416 L13.41368,13.61416 C13.52848,13.61416 13.62592,13.51896 13.62592,13.40416 L13.61416,13.33808 Z" id="Path"></path>
                </g>
            </g>
        </g>
    </g>
</svg>