<?xml version="1.0" encoding="UTF-8"?>
<svg width="19px" height="19px" viewBox="0 0 19 19" version="1.1" xmlns="http://www.w3.org/2000/svg" xmlns:xlink="http://www.w3.org/1999/xlink">
    <!-- Generator: Sketch 53.2 (72643) - https://sketchapp.com -->
    <title>Group</title>
    <desc>Created with Sketch.</desc>
    <g id="Dashboard" stroke="none" stroke-width="1" fill="none" fill-rule="evenodd">
        <g id="Responsive_dashboard_menu02" transform="translate(-335.000000, -18.000000)" fill="#687583" fill-rule="nonzero">
            <g id="Group" transform="translate(344.677670, 27.677670) rotate(-315.000000) translate(-344.677670, -27.677670) translate(332.177670, 15.177670)">
                <path d="M14,11 L23.5,11 C24.3284271,11 25,11.6715729 25,12.5 C25,13.3284271 24.3284271,14 23.5,14 L14,14 L14,23.5 C14,24.3284271 13.3284271,25 12.5,25 C11.6715729,25 11,24.3284271 11,23.5 L11,14 L1.5,14 C0.671572875,14 0,13.3284271 0,12.5 C0,11.6715729 0.671572875,11 1.5,11 L11,11 L11,1.5 C11,0.671572875 11.6715729,4.54742278e-12 12.5,4.54747351e-12 C13.3284271,4.54752424e-12 14,0.671572875 14,1.5 L14,11 Z" id="Path"></path>
            </g>
        </g>
    </g>
</svg>