<?xml version="1.0" encoding="UTF-8"?>
<svg width="17px" height="17px" viewBox="0 0 17 17" version="1.1" xmlns="http://www.w3.org/2000/svg" xmlns:xlink="http://www.w3.org/1999/xlink">
    <!-- Generator: Sketch 53.2 (72643) - https://sketchapp.com -->
    <title>Group 29</title>
    <desc>Created with Sketch.</desc>
    <g id="Dashboard" stroke="none" stroke-width="1" fill="none" fill-rule="evenodd">
        <g id="Kit" transform="translate(-504.000000, -15181.000000)">
            <g id="Rectangle-4-Copy-14" transform="translate(29.000000, 14716.000000)">
                <g id="Group-79-Copy" transform="translate(475.000000, 463.000000)">
                    <g id="Group-29" transform="translate(0.000000, 2.000000)">
                        <g id="Group-36" fill="#D3D8DE">
                            <circle id="Oval" cx="8.5" cy="8.5" r="8.5"></circle>
                        </g>
                        <path d="M7.5821084,10.2450364 L7.57597619,9.63952908 C7.57597619,9.54454754 7.5851745,9.45154475 7.60357111,9.3605208 C7.62196772,9.26949685 7.64240836,9.18836676 7.66489314,9.1171306 C7.68737791,9.04589444 7.7251931,8.96476435 7.77833889,8.8737404 C7.83148469,8.78271645 7.87543208,8.71148029 7.91018126,8.66003193 C7.94493044,8.60858356 8.00216431,8.5373474 8.08188295,8.44632346 C8.16160159,8.35529951 8.21985752,8.2899997 8.25665073,8.25042402 C8.29344395,8.21084835 8.35987612,8.14258037 8.45594734,8.04562007 C8.55201855,7.94865978 8.61436255,7.8843493 8.64297953,7.85268882 C8.76562359,7.72604679 8.86578288,7.61919255 8.94345748,7.53212611 C9.02113208,7.44505967 9.10391683,7.34018427 9.19181171,7.21749975 C9.27970658,7.09481523 9.34409472,6.97015195 9.3849761,6.84350993 C9.42585749,6.7168679 9.44629813,6.58824703 9.44629813,6.45764741 C9.44629813,6.16083009 9.35431509,5.92931258 9.17034899,5.76309488 C8.9863829,5.59687718 8.74313882,5.51376833 8.44061683,5.51376833 C8.20350494,5.51376833 7.97150329,5.57214238 7.74461178,5.68889055 C7.51772026,5.80563873 7.3265999,5.96493066 7.17125079,6.16676644 L6,5.11603312 C6.28616951,4.77172503 6.6571678,4.49964252 7.11299486,4.29978549 C7.56882192,4.09992847 8.05633207,4 8.5755253,4 C8.93528124,4 9.27255241,4.04946952 9.5873388,4.14840866 C9.9021252,4.2473478 10.1831846,4.39179886 10.4305167,4.58176195 C10.6778489,4.77172503 10.8730574,5.02006216 11.0161421,5.32677342 C11.1592268,5.63348468 11.2307692,5.98076095 11.2307692,6.36860221 C11.2307692,6.59418338 11.2011303,6.8098706 11.1418523,7.01566397 C11.0825743,7.22145735 10.9957015,7.41240976 10.8812337,7.5885214 C10.7667658,7.76463304 10.6522981,7.91798863 10.5378303,8.04858825 C10.4233625,8.17918787 10.2843659,8.31968143 10.1208405,8.47006884 C10.0676947,8.51755961 9.985932,8.59077452 9.87555235,8.68971366 C9.76517269,8.7886528 9.68341002,8.8618677 9.63026423,8.90935848 C9.57711843,8.95684925 9.5096642,9.02214906 9.42790152,9.10525791 C9.34613885,9.18836676 9.28583879,9.25861349 9.24700153,9.3159982 C9.20816428,9.37338292 9.17239303,9.43868273 9.13968798,9.51189764 C9.10698293,9.58511254 9.08858632,9.65733812 9.08449815,9.72857428 L9.04157273,10.2450364 L7.5821084,10.2450364 Z M8.34250158,13.1538462 C8.05633207,13.1538462 7.81411005,13.059854 7.61583551,12.8718697 C7.41756098,12.6838854 7.31842366,12.455336 7.31842366,12.1862217 C7.31842366,11.9171074 7.41756098,11.6875686 7.61583551,11.4976055 C7.81411005,11.3076424 8.05633207,11.2126609 8.34250158,11.2126609 C8.5223795,11.2126609 8.68999312,11.2561941 8.84534223,11.3432605 C9.00069134,11.4303269 9.12435747,11.5490539 9.21634052,11.6994413 C9.30832356,11.8498287 9.35431509,12.0120889 9.35431509,12.1862217 C9.35431509,12.4513785 9.25517777,12.6789384 9.05690324,12.8689015 C8.8586287,13.0588646 8.62049475,13.1538462 8.34250158,13.1538462 Z" id="?" fill="#FFFFFF"></path>
                    </g>
                </g>
            </g>
        </g>
    </g>
</svg>