<svg xmlns="http://www.w3.org/2000/svg" width="16" height="16" viewBox="0 0 16 16">
    <g fill="#FFF" fill-rule="nonzero">
        <path d="M6.961.026A8.052 8.052 0 0 0 6 3.86c0 4.34 3.393 7.86 7.578 7.86.207 0 .413-.01.616-.026-1.296 2.402-3.773 4.025-6.616 4.025C3.393 15.72 0 12.201 0 7.86 0 3.735 3.064.352 6.961.027zM12.41 4.74l-1.336-.677 1.336-.677L13.063 2l.653 1.386 1.336.677-1.336.677-.653 1.386z"/>
        <path d="M8.956 2.858l-.906-.46.906-.458L9.4 1l.442.94.906.459-.906.459-.442.94z"/>
    </g>
</svg>
