<svg xmlns="http://www.w3.org/2000/svg" width="18" height="16" viewBox="0 0 18 16">
    <g fill="none" fill-rule="evenodd">
        <path stroke="#FFF" stroke-width=".01" d="M.005.005h17.99v15.99H.005z"/>
        <g transform="translate(2)">
            <path fill="#687583" fill-rule="nonzero" d="M7 2a2 2 0 0 0-2 2v3a2 2 0 1 0 4 0V4a2 2 0 0 0-2-2zm0-2a4 4 0 0 1 4 4v3a4 4 0 1 1-8 0V4a4 4 0 0 1 4-4z"/>
            <rect width="14" height="11" y="5" fill="#C8C8CC" rx="1"/>
        </g>
        <g fill="#687583" transform="translate(7 7)">
            <circle cx="2" cy="2" r="2"/>
            <rect width="2" height="5" x="1" y="2" rx="1"/>
        </g>
    </g>
</svg>
