<svg xmlns="http://www.w3.org/2000/svg" width="20" height="20" viewBox="0 0 20 20">
    <g fill="#111" fill-rule="evenodd">
        <circle cx="9.071" cy="10.071" r="5.071"/>
        <path fill-rule="nonzero" d="M9 .672a.672.672 0 0 1 1.344 0V2.49A.672.672 0 1 1 9 2.49V.672zM15.482 2.197a.672.672 0 1 1 .95.95l-1.285 1.286a.672.672 0 0 1-.95-.95l1.285-1.286zM18.49 9a.672.672 0 1 1 0 1.344h-1.818a.672.672 0 1 1 0-1.344h1.818zM16.433 15.482a.672.672 0 0 1-.95.95l-1.286-1.285a.672.672 0 0 1 .95-.95l1.286 1.285zM10.344 18.49a.672.672 0 1 1-1.344 0v-1.818a.672.672 0 1 1 1.344 0v1.818zM3.147 16.433a.672.672 0 0 1-.95-.95l1.285-1.286a.672.672 0 0 1 .95.95l-1.285 1.286zM.672 10.344A.672.672 0 1 1 .672 9H2.49a.672.672 0 0 1 0 1.344H.672zM2.197 3.147a.672.672 0 0 1 .95-.95l1.286 1.285a.672.672 0 0 1-.95.95L2.196 3.148z"/>
    </g>
</svg>
