<svg xmlns="http://www.w3.org/2000/svg" width="21" height="20" viewBox="0 0 21 20">
    <defs>
        <linearGradient id="a" x1="6.608%" x2="109.171%" y1="121.335%" y2="15.69%">
            <stop offset="0%" stop-color="#2611E7"/>
            <stop offset="100%" stop-color="#6DB4D7"/>
        </linearGradient>
        <linearGradient id="b" x1="-92.147%" x2="111.371%" y1="161.114%" y2="4.782%">
            <stop offset="0%" stop-color="#1180E7"/>
            <stop offset="100%" stop-color="#D1E6F0"/>
        </linearGradient>
    </defs>
    <g fill="none" fill-rule="evenodd">
        <path fill="url(#a)" fill-rule="nonzero" d="M14.761 8.173c.51-.022.983.137 1.36.419.281.209.679-.007.679-.359V5.556c0-.938-.755-1.7-1.687-1.7h-2.49a.434.434 0 0 1-.38-.642c.211-.376.313-.82.263-1.293A2.156 2.156 0 0 0 10.622.014a2.147 2.147 0 0 0-2.384 2.143c0 .385.1.745.275 1.057a.434.434 0 0 1-.38.643h-2.49c-.931 0-1.686.76-1.686 1.7v2.588a.432.432 0 0 1-.667.365 2.114 2.114 0 0 0-1.292-.334c-1.073.07-1.944.965-1.995 2.047a2.15 2.15 0 0 0 2.138 2.263 2.11 2.11 0 0 0 1.158-.345c.283-.185.658.031.658.371V15.1c0 .939.755 1.7 1.686 1.7h9.47c.932 0 1.687-.76 1.687-1.7v-2.677c0-.353-.399-.565-.68-.356a2.114 2.114 0 0 1-1.266.419 2.15 2.15 0 0 1-2.138-2.266c.053-1.1.953-2 2.045-2.047z" transform="translate(1.32 1)"/>
        <path fill="url(#b)" d="M8.471 9.942l-1.325.697a.16.16 0 0 1-.232-.168l.253-1.476L6.095 7.95a.16.16 0 0 1 .088-.273l1.482-.216.663-1.342a.16.16 0 0 1 .287 0l.662 1.342 1.482.216a.16.16 0 0 1 .089.273L9.776 8.995l.253 1.476a.16.16 0 0 1-.232.168L8.47 9.942z" opacity=".6" transform="translate(1.32 1)"/>
    </g>
</svg>
