<?xml version="1.0" encoding="UTF-8"?>
<svg width="8px" height="10px" viewBox="0 0 8 10" version="1.1" xmlns="http://www.w3.org/2000/svg" xmlns:xlink="http://www.w3.org/1999/xlink">
    <!-- Generator: Sketch 53.2 (72643) - https://sketchapp.com -->
    <title>Combined Shape</title>
    <desc>Created with Sketch.</desc>
    <defs>
        <linearGradient x1="4.30072384%" y1="100%" x2="95.6992762%" y2="0%" id="linearGradient-1">
            <stop stop-color="#687583" offset="0%"></stop>
            <stop stop-color="#ACB5C0" offset="100%"></stop>
        </linearGradient>
    </defs>
    <g id="Dashboard" stroke="none" stroke-width="1" fill="none" fill-rule="evenodd">
        <g id="iceScrum_dashboard_3-user" transform="translate(-796.000000, -939.000000)" fill="url(#linearGradient-1)">
            <path d="M800.518635,944.274995 L803.71595,942.794222 C803.81618,942.747802 803.935062,942.791424 803.981482,942.891654 C803.993681,942.917995 804,942.946675 804,942.975704 L804,946.687153 C804,946.765068 803.954751,946.835891 803.88405,946.868635 L800.686734,948.349408 C800.586505,948.395827 800.467622,948.352205 800.421203,948.251976 C800.409004,948.225635 800.402685,948.196955 800.402685,948.167926 L800.402685,944.456477 C800.402685,944.378561 800.447934,944.307739 800.518635,944.274995 Z M799.481365,944.274995 C799.552066,944.307739 799.597315,944.378561 799.597315,944.456477 L799.597315,948.167926 C799.597315,948.196955 799.590996,948.225635 799.578797,948.251976 C799.532378,948.352205 799.413495,948.395827 799.313266,948.349408 L796.11595,946.868635 C796.045249,946.835891 796,946.765068 796,946.687153 L796,942.975704 C796,942.946675 796.006319,942.917995 796.018518,942.891654 C796.064938,942.791424 796.18382,942.747802 796.28405,942.794222 L799.481365,944.274995 Z M800.068894,939.93353 L803.59733,941.587875 C803.69734,941.634766 803.740401,941.753852 803.693511,941.853862 C803.673776,941.895953 803.639995,941.929855 803.597974,941.94974 L800.030787,943.637784 C799.976529,943.66346 799.913607,943.663408 799.859392,943.637642 L796.378367,941.983314 C796.278603,941.935902 796.236164,941.816592 796.283576,941.716828 C796.303223,941.675487 796.336456,941.642135 796.377728,941.622342 L799.897504,939.934281 C799.951627,939.908324 800.014546,939.908048 800.068894,939.93353 Z" id="Combined-Shape"></path>
        </g>
    </g>
</svg>