<?xml version="1.0" encoding="UTF-8"?>
<svg width="8px" height="10px" viewBox="0 0 8 10" version="1.1" xmlns="http://www.w3.org/2000/svg" xmlns:xlink="http://www.w3.org/1999/xlink">
    <!-- Generator: Sketch 53.2 (72643) - https://sketchapp.com -->
    <title>Combined Shape</title>
    <desc>Created with Sketch.</desc>
    <defs>
        <linearGradient x1="5.2192645%" y1="100%" x2="94.7807355%" y2="0%" id="linearGradient-1" offset="0%">
            <stop stop-color="#687583"></stop>
            <stop stop-color="#FFFFFF"></stop>
        </linearGradient>
    </defs>
    <g id="Dashboard" stroke="none" stroke-width="1" fill="none" fill-rule="evenodd">
        <g id="Ui-kit" transform="translate(-2483.000000, -2481.000000)" fill="url(#linearGradient-1)">
            <path d="M2487.51863,2486.27499 L2490.71595,2484.79422 C2490.81618,2484.7478 2490.93506,2484.79142 2490.98148,2484.89165 C2490.99368,2484.91799 2491,2484.94668 2491,2484.9757 L2491,2488.68715 C2491,2488.76507 2490.95475,2488.83589 2490.88405,2488.86863 L2487.68673,2490.34941 C2487.5865,2490.39583 2487.46762,2490.35221 2487.4212,2490.25198 C2487.409,2490.22564 2487.40268,2490.19695 2487.40268,2490.16793 L2487.40268,2486.45648 C2487.40268,2486.37856 2487.44793,2486.30774 2487.51863,2486.27499 Z M2486.48137,2486.27499 C2486.55207,2486.30774 2486.59732,2486.37856 2486.59732,2486.45648 L2486.59732,2490.16793 C2486.59732,2490.19695 2486.591,2490.22564 2486.5788,2490.25198 C2486.53238,2490.35221 2486.4135,2490.39583 2486.31327,2490.34941 L2483.11595,2488.86863 C2483.04525,2488.83589 2483,2488.76507 2483,2488.68715 L2483,2484.9757 C2483,2484.94668 2483.00632,2484.91799 2483.01852,2484.89165 C2483.06494,2484.79142 2483.18382,2484.7478 2483.28405,2484.79422 L2486.48137,2486.27499 Z M2487.06889,2481.93353 L2490.59733,2483.58788 C2490.69734,2483.63477 2490.7404,2483.75385 2490.69351,2483.85386 C2490.67378,2483.89595 2490.63999,2483.92985 2490.59797,2483.94974 L2487.03079,2485.63778 C2486.97653,2485.66346 2486.91361,2485.66341 2486.85939,2485.63764 L2483.37837,2483.98331 C2483.2786,2483.9359 2483.23616,2483.81659 2483.28358,2483.71683 C2483.30322,2483.67549 2483.33646,2483.64214 2483.37773,2483.62234 L2486.8975,2481.93428 C2486.95163,2481.90832 2487.01455,2481.90805 2487.06889,2481.93353 Z" id="Combined-Shape"></path>
        </g>
    </g>
</svg>