<?xml version="1.0" encoding="UTF-8"?>
<svg width="11px" height="6px" viewBox="0 0 11 6" version="1.1" xmlns="http://www.w3.org/2000/svg" xmlns:xlink="http://www.w3.org/1999/xlink">
    <!-- Generator: Sketch 53.2 (72643) - https://sketchapp.com -->
    <title>Path Copy 2</title>
    <desc>Created with Sketch.</desc>
    <defs>
        <linearGradient x1="4.82961516%" y1="38.0522526%" x2="4.91681408%" y2="38.075067%" id="linearGradient-1">
            <stop stop-color="#FFFFFF" offset="0%"></stop>
            <stop stop-color="#FFFFFF" offset="100%"></stop>
        </linearGradient>
    </defs>
    <g id="Dashboard" stroke="none" stroke-width="1" fill="none" fill-rule="evenodd">
        <g id="Ui-kit" transform="translate(-2460.000000, -2341.000000)" fill="url(#linearGradient-1)">
            <path d="M2467.62547,2341.1748 C2467.17401,2341.05712 2466.72042,2341 2466.45043,2341 C2465.52247,2341 2464.62557,2341.31903 2463.9249,2341.89831 C2463.28262,2342.42931 2462.84257,2343.14636 2462.67134,2343.93368 C2461.68691,2344.15989 2460.94858,2344.32955 2460.45637,2344.44265 C2460.19133,2344.50355 2460,2344.68497 2460,2344.89836 C2460,2345.2486 2460.30864,2345.47236 2460.45637,2345.62121 C2461.18922,2346.16926 2462.34359,2346.29976 2462.67134,2346.29976 C2462.99908,2346.29976 2464.80308,2346.19668 2465.62145,2345.2486 C2467.11702,2345.58907 2468.37054,2345.68949 2469.93023,2345.69552 L2470.17044,2345.69644 L2470.22155,2345.47236 C2470.28038,2345.21446 2470.31021,2344.94954 2470.31021,2344.68497 C2470.31017,2343.0441 2469.18091,2341.65051 2467.62547,2341.1748 Z" id="Path-Copy-2" transform="translate(2465.155103, 2343.649879) scale(-1, 1) translate(-2465.155103, -2343.649879) "></path>
        </g>
    </g>
</svg>