<svg xmlns="http://www.w3.org/2000/svg" width="13" height="14" viewBox="0 0 13 14">
    <g fill="none" fill-rule="evenodd">
        <path fill-rule="nonzero" stroke="#FFF" stroke-width=".01" d="M.005.005h12.99v13.99H.005z"/>
        <g fill="#687583" transform="translate(0 1)">
            <path fill-rule="nonzero" d="M4.556 8.726l.874-2.307.941.904.958-.92.923 2.434-.425.408-.364-.35-.182.175.364.35-1.183 1.136-1.274-1.223.728-.7-.182-.174-.728.699-.45-.432zm-.603-.579l-.2-.193.874-2.306.2.192-.874 2.307zm-.803-.771l-.602-.578.728-.699-.182-.175-.728.7-1.092-1.05.364-.349-.182-.175-.364.35L0 4.35l1.638-1.573 2.386 2.291-.874 2.307zm4.782-1.552l.2-.193.923 2.435-.2.193-.923-2.435zm.803-.772l2.46-2.361 1.729 1.66-1.183 1.136-.728-.699-.182.175.728.7-.046.043-1 .961-.046.044-.364-.35-.183.175.365.35-.627.601-.923-2.435z"/>
            <ellipse cx="6.371" cy="1.236" rx="1.287" ry="1.236"/>
            <path fill-rule="nonzero" d="M7.403 2.501l2.62 7.202c.103.28.147.578.132.876l-.025.484a.124.124 0 0 1-.21.082l-.314-.308a2.225 2.225 0 0 1-.536-.83L6.462 2.84c.354-.018.678-.141.94-.339zm-1.1.34l-2.608 7.166a2.225 2.225 0 0 1-.535.83l-.315.308a.124.124 0 0 1-.21-.082l-.025-.484c-.015-.298.03-.596.132-.876l2.616-7.188c.264.193.59.313.945.326z"/>
        </g>
    </g>
</svg>
