<svg xmlns="http://www.w3.org/2000/svg" width="13" height="14" viewBox="0 0 13 14">
<g fill="none" fill-rule="evenodd">
    <g fill="#111">
        <path d="M1.474 10.57a.974.974 0 0 0 0 1.39 1 1 0 0 0 .704.288 1 1 0 0 0 .705-.288l3.27-3.229-1.41-1.39-3.27 3.229zM9.646 4.587l1.424-.727.746-1.423-.695-.686-1.441.737-.738 1.404L7.21 5.604l.703.695z"/>
        <path d="M9.958 8.318l-.134-.013c-.243 0-.473.05-.688.128L5.048 4.397c.08-.213.13-.44.13-.68l-.014-.132A1.975 1.975 0 0 0 2.33 1.947l1.324 1.307a.64.64 0 0 1 .149.236.648.648 0 0 1-.15.69.667.667 0 0 1-.469.193.666.666 0 0 1-.23-.045.662.662 0 0 1-.24-.148L1.394 2.874c-.125.257-.2.54-.2.843 0 1.04.822 1.884 1.858 1.953l.134.013c.243 0 .474-.049.689-.127L7.96 9.592c-.078.212-.128.44-.128.68l.014.132a1.973 1.973 0 0 0 2.832 1.637l-1.324-1.306a.668.668 0 0 1-.15-.235.647.647 0 0 1 .15-.692.664.664 0 0 1 .7-.147c.088.032.17.078.24.147l1.322 1.306c.125-.257.2-.54.2-.843-.001-1.04-.822-1.883-1.859-1.953z"/>
    </g>
</g>
</svg>