<svg xmlns="http://www.w3.org/2000/svg" width="13" height="14" viewBox="0 0 13 14">
    <g fill="none" fill-rule="evenodd">
        <path fill="#111"
              d="M3.321 8.469H1.838a.344.344 0 1 1 0-.688h1.483v-.992l-1.106-.586a.35.35 0 0 1-.186-.309V3.87c0-.194.157-.35.352-.35.195 0 .352.156.352.35v1.814l.61.323a1.2 1.2 0 0 1 1.178-.97h1.62v5.165l-1.772 1.693a3.208 3.208 0 0 1-.964-1.64l-.672.355v1.814c0 .194-.157.35-.352.35a.351.351 0 0 1-.352-.35V10.4a.35.35 0 0 1 .186-.309l1.106-.585V8.469zm6.344-.688h1.52a.344.344 0 1 1 0 .688h-1.52v.977l1.218.645a.35.35 0 0 1 .187.309v2.024c0 .194-.158.35-.353.35a.351.351 0 0 1-.352-.35V10.61l-.772-.409a3.208 3.208 0 0 1-.975 1.694l-1.772-1.693V5.036h1.62a1.2 1.2 0 0 1 1.187 1.025l.712-.377V3.87c0-.194.158-.35.352-.35.195 0 .353.156.353.35v2.024a.35.35 0 0 1-.187.31l-1.218.644v.933zM7.506 2.75c.018.06.031.122.038.185h.017a1.4 1.4 0 0 1 1.4 1.4H4.026a1.4 1.4 0 0 1 1.4-1.4h.016c.009-.074.025-.146.048-.215l-.846-.994a.342.342 0 0 1 .043-.486.35.35 0 0 1 .49.043l.75.882a1.058 1.058 0 0 1 1.155.015l.762-.897a.35.35 0 0 1 .495-.04.342.342 0 0 1 .039.483l-.872 1.025zm-1.013 8.066l1.528 1.453-.007.004c-.921.62-2.128.62-3.048-.004l1.527-1.453z"/>
    </g>
</svg>
