<svg id="bf80eced-d37d-486b-a0c9-15ea43619f18" data-name="Calque 1" xmlns="http://www.w3.org/2000/svg" xmlns:xlink="http://www.w3.org/1999/xlink" viewBox="0 0 140 140"><defs><style>.b422e977-9451-4342-a0aa-ba75954836ec{fill:url(#e78c51b0-a3f4-4537-8f06-a0b47c5f8304);}.ecc25de3-277f-4843-a867-affe931b2c62{fill:#f2f2f2;}.ad016d6f-3c7b-4dad-8f85-19daa6d85317{isolation:isolate;}.a6f18138-c656-4d9f-a0e6-d53b913e3ce0,.b34e85db-ee57-4bc4-a968-ec3c3b8a1ac3{fill:#fff;}.b34e85db-ee57-4bc4-a968-ec3c3b8a1ac3{opacity:0.55;}.bb20c471-6a91-45bb-aa22-5f092a79a831{fill:url(#ac5878d0-18f9-451f-9814-9adc9fc6ae30);}.a3de809c-1949-479b-853f-00f338511ebd{fill:url(#f6eefcdc-222e-4cd1-ae61-69602b7c54e9);}.beab7fc2-de97-4539-8497-286a0f4a8bdd{fill:url(#bb2ea921-1433-4420-868d-749637679566);}</style><linearGradient id="e78c51b0-a3f4-4537-8f06-a0b47c5f8304" x1="-335.31632" y1="162.71095" x2="-335.31632" y2="162.40759" gradientTransform="matrix(177.99786, 0.87698, 0.77352, -156.99811, 59599.76391, 25858.96206)" gradientUnits="userSpaceOnUse"><stop offset="0" stop-color="#fad961"/><stop offset="0.35922" stop-color="#f9b64b"/><stop offset="1" stop-color="#f76b1c"/></linearGradient><linearGradient id="ac5878d0-18f9-451f-9814-9adc9fc6ae30" x1="76.0763" y1="42.68757" x2="128.67272" y2="42.68757" gradientUnits="userSpaceOnUse"><stop offset="0" stop-color="#1180e7"/><stop offset="1" stop-color="#d1e6f0"/></linearGradient><linearGradient id="f6eefcdc-222e-4cd1-ae61-69602b7c54e9" x1="62.66343" y1="120.49654" x2="17.46655" y2="79.17316" gradientUnits="userSpaceOnUse"><stop offset="0" stop-color="#2611e7"/><stop offset="0.12112" stop-color="#2917e6"/><stop offset="0.2903" stop-color="#312ae5"/><stop offset="0.48774" stop-color="#3e47e2"/><stop offset="0.70656" stop-color="#5071de"/><stop offset="0.94038" stop-color="#67a5d8"/><stop offset="1" stop-color="#6db4d7"/></linearGradient><linearGradient id="bb2ea921-1433-4420-868d-749637679566" x1="-334.9639" y1="162.35051" x2="-334.9639" y2="162.04715" gradientTransform="matrix(177.99786, 0.87698, 0.77352, -156.99811, 59599.76391, 25858.96206)" gradientUnits="userSpaceOnUse"><stop offset="0" stop-color="#ffe802"/><stop offset="1" stop-color="#fdcc01"/></linearGradient></defs><title>Sans titre - 2</title><path id="b85d8f89-6a1b-4bb4-af08-d98445c99624" data-name="Mask-6" class="b422e977-9451-4342-a0aa-ba75954836ec" d="M15.60994,19.46435l48.85381.24069a1.76618,1.76618,0,0,1,1.75746,1.77487L66.011,64.15333a1.76617,1.76617,0,0,1-1.77486,1.75746l-48.85381,0a1.76619,1.76619,0,0,1-1.75746-1.77486l.21025-42.91414A1.76618,1.76618,0,0,1,15.60994,19.46435Z"/><g id="a551cc71-81f3-417a-849c-9a0f5c1771a1" data-name="Group 21"><path id="aba380ef-50bc-4f9c-85af-1b0072e74224" data-name="Rectangle" class="ecc25de3-277f-4843-a867-affe931b2c62" d="M19.91666,33.97287h26.0336c.39938,0,.72315.21828.72315.48753v2.68139c0,.26925-.32377.48753-.72315.48753H19.91666c-.39939,0-.72316-.21828-.72316-.48753V34.4604C19.1935,34.19115,19.51727,33.97287,19.91666,33.97287Z"/></g><g id="b59aa33a-885e-4cb8-966a-74443fcdc7e7" data-name="Group 17"><path id="fbf6b21f-2425-471e-9e42-405ee0fd6a3d" data-name="Rectangle-2" class="ecc25de3-277f-4843-a867-affe931b2c62" d="M45.02044,47.99426H51.988a.7959.7959,0,0,1,.77417.816v4.48787a.7959.7959,0,0,1-.77417.816H45.02044a.7959.7959,0,0,1-.77417-.816V48.81024A.7959.7959,0,0,1,45.02044,47.99426Z"/></g><g id="a3c55ca2-a45b-449b-998b-2f3cc7298989" data-name=" 02" class="ad016d6f-3c7b-4dad-8f85-19daa6d85317"><g class="ad016d6f-3c7b-4dad-8f85-19daa6d85317"><path class="a6f18138-c656-4d9f-a0e6-d53b913e3ce0" d="M57.46387,28.68311a1.09063,1.09063,0,0,1-.36817-.3379,1.65585,1.65585,0,0,1-.23632-.54736,2.84069,2.84069,0,0,1-.07715-.73047,2.63039,2.63039,0,0,1,.15136-.895,1.33558,1.33558,0,0,1,.416-.60205.97029.97029,0,0,1,.63379-.21.9943.9943,0,0,1,.47461.12256,1.10128,1.10128,0,0,1,.36816.33838,1.67422,1.67422,0,0,1,.23633.54541,2.84465,2.84465,0,0,1,.07715.73242,2.67994,2.67994,0,0,1-.15039.89649,1.334,1.334,0,0,1-.416.60058,1.03129,1.03129,0,0,1-1.10937.08692Zm.96582-.71387a1.87453,1.87453,0,0,0,.18457-.87744A1.83006,1.83006,0,0,0,58.4502,26.21a.51965.51965,0,0,0-.95606-.01269,1.83606,1.83606,0,0,0-.18555.877,1.80667,1.80667,0,0,0,.165.87793.51862.51862,0,0,0,.95606.01709Z"/><path class="a6f18138-c656-4d9f-a0e6-d53b913e3ce0" d="M60.28809,28.72119a1.09207,1.09207,0,0,1-.36817-.33838,1.65332,1.65332,0,0,1-.23633-.54687,2.84745,2.84745,0,0,1-.07714-.731,2.63247,2.63247,0,0,1,.15136-.895,1.34089,1.34089,0,0,1,.416-.602.96718.96718,0,0,1,.63379-.20947.99531.99531,0,0,1,.47558.12256,1.10892,1.10892,0,0,1,.36817.33789,1.67722,1.67722,0,0,1,.23633.5459,2.83838,2.83838,0,0,1,.07714.73193,2.6774,2.6774,0,0,1-.15039.89648,1.33116,1.33116,0,0,1-.416.60059,1.03187,1.03187,0,0,1-1.11035.0874Zm.96679-.71435a1.87241,1.87241,0,0,0,.18457-.877,1.82853,1.82853,0,0,0-.16406-.88183.52039.52039,0,0,0-.957-.0127,1.83471,1.83471,0,0,0-.18555.877,1.80784,1.80784,0,0,0,.165.87793.51918.51918,0,0,0,.957.01661Z"/></g></g><path class="b34e85db-ee57-4bc4-a968-ec3c3b8a1ac3" d="M13.62481,60.18742h52.4146a0,0,0,0,1,0,0v3.88128a1.84211,1.84211,0,0,1-1.84211,1.84211H15.46692a1.84211,1.84211,0,0,1-1.84211-1.84211V60.18742A0,0,0,0,1,13.62481,60.18742Z"/><path id="a81cf3cb-4653-4c29-9568-1522369eb01a" data-name="Mask-6" class="bb20c471-6a91-45bb-aa22-5f092a79a831" d="M78.06143,19.46435l48.85381.24069a1.76619,1.76619,0,0,1,1.75746,1.77487l-.21025,42.67342a1.76617,1.76617,0,0,1-1.77486,1.75746l-48.85381,0a1.76617,1.76617,0,0,1-1.75746-1.77486l.21025-42.91414A1.76617,1.76617,0,0,1,78.06143,19.46435Z"/><g id="f4a6e7da-7dca-41fb-9a9b-55573220a15a" data-name="Group 21"><path id="ac561470-04e1-4ce0-b3a8-b70cbcdc5c78" data-name="Rectangle" class="ecc25de3-277f-4843-a867-affe931b2c62" d="M82.78751,33.97287H108.8211c.39939,0,.72316.21828.72316.48753v2.68139c0,.26925-.32377.48753-.72316.48753H82.78751c-.39939,0-.72316-.21828-.72316-.48753V34.4604C82.06435,34.19115,82.38812,33.97287,82.78751,33.97287Z"/></g><g id="bb5aa23a-836b-40f3-8e42-b658e0841733" data-name="Group 17"><path id="a8c4127c-292c-4ef7-8c69-e22dd7c3b5ee" data-name="Rectangle-2" class="ecc25de3-277f-4843-a867-affe931b2c62" d="M107.47193,47.99426h6.96753a.7959.7959,0,0,1,.77418.816v4.48787a.79591.79591,0,0,1-.77418.816h-6.96753a.79591.79591,0,0,1-.77418-.816V48.81024A.7959.7959,0,0,1,107.47193,47.99426Z"/></g><g id="b204c4e0-7dc3-45c5-a391-8f193bc1ab2c" data-name=" 02" class="ad016d6f-3c7b-4dad-8f85-19daa6d85317"><g class="ad016d6f-3c7b-4dad-8f85-19daa6d85317"><path class="a6f18138-c656-4d9f-a0e6-d53b913e3ce0" d="M119.915,28.68311a1.09051,1.09051,0,0,1-.36816-.3379,1.65586,1.65586,0,0,1-.23633-.54736,2.84069,2.84069,0,0,1-.07715-.73047,2.63038,2.63038,0,0,1,.15137-.895,1.33549,1.33549,0,0,1,.416-.60205.97031.97031,0,0,1,.63379-.21.9943.9943,0,0,1,.47461.12256,1.10128,1.10128,0,0,1,.36816.33838,1.674,1.674,0,0,1,.23633.54541,2.84421,2.84421,0,0,1,.07715.73242,2.67994,2.67994,0,0,1-.15039.89649,1.33387,1.33387,0,0,1-.416.60058,1.03129,1.03129,0,0,1-1.10937.08692Zm.96582-.71387a1.87453,1.87453,0,0,0,.18457-.87744,1.83006,1.83006,0,0,0-.16406-.88184.51965.51965,0,0,0-.95606-.01269,1.836,1.836,0,0,0-.18554.877,1.80667,1.80667,0,0,0,.165.87793.51862.51862,0,0,0,.95606.01709Z"/><path class="a6f18138-c656-4d9f-a0e6-d53b913e3ce0" d="M122.73926,28.72119a1.09216,1.09216,0,0,1-.36817-.33838,1.65311,1.65311,0,0,1-.23632-.54687,2.847,2.847,0,0,1-.07715-.731,2.63247,2.63247,0,0,1,.15136-.895,1.341,1.341,0,0,1,.416-.602.96718.96718,0,0,1,.63379-.20947.99538.99538,0,0,1,.47559.12256,1.109,1.109,0,0,1,.36816.33789,1.67722,1.67722,0,0,1,.23633.5459,2.83836,2.83836,0,0,1,.07715.73193,2.67764,2.67764,0,0,1-.1504.89648,1.33116,1.33116,0,0,1-.416.60059,1.03187,1.03187,0,0,1-1.11035.0874Zm.96679-.71435a1.87228,1.87228,0,0,0,.18457-.877,1.82853,1.82853,0,0,0-.16406-.88183.52039.52039,0,0,0-.957-.0127,1.83471,1.83471,0,0,0-.18555.877,1.80784,1.80784,0,0,0,.165.87793.51918.51918,0,0,0,.957.01661Z"/></g></g><path class="b34e85db-ee57-4bc4-a968-ec3c3b8a1ac3" d="M76.0763,60.18742h52.4146a0,0,0,0,1,0,0v3.88128a1.84211,1.84211,0,0,1-1.84211,1.84211H77.9184a1.84211,1.84211,0,0,1-1.84211-1.84211V60.18742A0,0,0,0,1,76.0763,60.18742Z"/><path id="e083ac8d-8b3f-457d-b4ee-95c997766dcb" data-name="Mask-6" class="a3de809c-1949-479b-853f-00f338511ebd" d="M15.60994,76.36146l48.85381.2407A1.76618,1.76618,0,0,1,66.22121,78.377L66.011,121.05045a1.76617,1.76617,0,0,1-1.77486,1.75746l-48.85381,0a1.76619,1.76619,0,0,1-1.75746-1.77486l.21025-42.91415A1.76619,1.76619,0,0,1,15.60994,76.36146Z"/><g id="a317b5ab-8fbd-423d-a735-c15b57a5d5cf" data-name="Group 21"><path id="af75647f-4044-4a68-b85e-89932bc43b7a" data-name="Rectangle" class="ecc25de3-277f-4843-a867-affe931b2c62" d="M19.91666,90.87h26.0336c.39938,0,.72315.21828.72315.48753v2.68139c0,.26925-.32377.48753-.72315.48753H19.91666c-.39939,0-.72316-.21828-.72316-.48753V91.35752C19.1935,91.08827,19.51727,90.87,19.91666,90.87Z"/></g><g id="a525bc2f-b6fd-4a83-bd10-6eb68be08f6b" data-name="Group 17"><path id="b2e9556c-f096-488c-8fb2-85ebffb50770" data-name="Rectangle-2" class="ecc25de3-277f-4843-a867-affe931b2c62" d="M45.02044,104.89138H51.988a.79589.79589,0,0,1,.77417.816v4.48788a.7959.7959,0,0,1-.77417.816H45.02044a.7959.7959,0,0,1-.77417-.816v-4.48788A.79589.79589,0,0,1,45.02044,104.89138Z"/></g><g id="fd9af0ee-3aa0-4c63-bd03-1522dad1ac57" data-name=" 02" class="ad016d6f-3c7b-4dad-8f85-19daa6d85317"><g class="ad016d6f-3c7b-4dad-8f85-19daa6d85317"><path class="a6f18138-c656-4d9f-a0e6-d53b913e3ce0" d="M57.46387,85.58008a1.08083,1.08083,0,0,1-.36817-.33789,1.64867,1.64867,0,0,1-.23632-.54688,2.8431,2.8431,0,0,1-.07715-.73047,2.63113,2.63113,0,0,1,.15136-.8955,1.334,1.334,0,0,1,.416-.60157.96762.96762,0,0,1,.63379-.21.98849.98849,0,0,1,.47461.12207,1.103,1.103,0,0,1,.36816.33887,1.6761,1.6761,0,0,1,.23633.54492,2.84946,2.84946,0,0,1,.07715.73242,2.67771,2.67771,0,0,1-.15039.89649,1.32855,1.32855,0,0,1-.416.60058.96857.96857,0,0,1-.63574.209A.98168.98168,0,0,1,57.46387,85.58008Zm.96582-.71387a1.87233,1.87233,0,0,0,.18457-.87695,1.82881,1.82881,0,0,0-.16406-.88184.51965.51965,0,0,0-.95606-.01269,1.83326,1.83326,0,0,0-.18555.877,1.80784,1.80784,0,0,0,.165.87793.51846.51846,0,0,0,.95606.0166Z"/><path class="a6f18138-c656-4d9f-a0e6-d53b913e3ce0" d="M60.28809,85.61816a1.09051,1.09051,0,0,1-.36817-.33789,1.65775,1.65775,0,0,1-.23633-.54687,2.85135,2.85135,0,0,1-.07714-.73145,2.62955,2.62955,0,0,1,.15136-.89453,1.3425,1.3425,0,0,1,.416-.60254.96679.96679,0,0,1,.63379-.209.995.995,0,0,1,.47558.12207,1.11933,1.11933,0,0,1,.36817.33789,1.6819,1.6819,0,0,1,.23633.5459,2.83987,2.83987,0,0,1,.07714.73242,2.68178,2.68178,0,0,1-.15039.89648,1.33378,1.33378,0,0,1-.416.60059,1.033,1.033,0,0,1-1.11035.08691Zm.96679-.71386a1.87528,1.87528,0,0,0,.18457-.877,1.82607,1.82607,0,0,0-.16406-.88183.52039.52039,0,0,0-.957-.0127,1.83333,1.83333,0,0,0-.18555.877,1.81033,1.81033,0,0,0,.165.87793.51918.51918,0,0,0,.957.0166Z"/></g></g><path class="b34e85db-ee57-4bc4-a968-ec3c3b8a1ac3" d="M13.62481,117.08454h52.4146a0,0,0,0,1,0,0v3.88128a1.84211,1.84211,0,0,1-1.84211,1.84211H15.46692a1.84211,1.84211,0,0,1-1.84211-1.84211v-3.88128A0,0,0,0,1,13.62481,117.08454Z"/><path id="acfd0790-f278-4013-9fe6-ce288f2a56e7" data-name="Mask-6" class="beab7fc2-de97-4539-8497-286a0f4a8bdd" d="M78.06143,76.36146l48.85381.2407A1.76619,1.76619,0,0,1,128.6727,78.377l-.21025,42.67342a1.76618,1.76618,0,0,1-1.77486,1.75746l-48.85381,0a1.76617,1.76617,0,0,1-1.75746-1.77486l.21025-42.91415A1.76619,1.76619,0,0,1,78.06143,76.36146Z"/><g id="fca682e2-817a-4f82-81c6-7a75be034caa" data-name="Group 21"><path id="a4c83aed-0e76-4ace-bf03-2a09b37098d3" data-name="Rectangle" class="ecc25de3-277f-4843-a867-affe931b2c62" d="M82.78751,90.87H108.8211c.39939,0,.72316.21828.72316.48753v2.68139c0,.26925-.32377.48753-.72316.48753H82.78751c-.39939,0-.72316-.21828-.72316-.48753V91.35752C82.06435,91.08827,82.38812,90.87,82.78751,90.87Z"/></g><g id="b259b1e5-cc1c-4825-bc33-0fa376d1588e" data-name="Group 17"><path id="b22a4f3e-5ea3-443e-b22a-ad7d9811f52f" data-name="Rectangle-2" class="ecc25de3-277f-4843-a867-affe931b2c62" d="M107.47193,104.89138h6.96753a.7959.7959,0,0,1,.77418.816v4.48788a.79591.79591,0,0,1-.77418.816h-6.96753a.79591.79591,0,0,1-.77418-.816v-4.48788A.7959.7959,0,0,1,107.47193,104.89138Z"/></g><g id="b22ad659-91f1-4810-8bc7-4b449f187a91" data-name=" 02" class="ad016d6f-3c7b-4dad-8f85-19daa6d85317"><g class="ad016d6f-3c7b-4dad-8f85-19daa6d85317"><path class="a6f18138-c656-4d9f-a0e6-d53b913e3ce0" d="M119.915,85.58008a1.08071,1.08071,0,0,1-.36816-.33789,1.64867,1.64867,0,0,1-.23633-.54688,2.8431,2.8431,0,0,1-.07715-.73047,2.63112,2.63112,0,0,1,.15137-.8955,1.33391,1.33391,0,0,1,.416-.60157.96763.96763,0,0,1,.63379-.21.98849.98849,0,0,1,.47461.12207,1.103,1.103,0,0,1,.36816.33887,1.67589,1.67589,0,0,1,.23633.54492,2.849,2.849,0,0,1,.07715.73242,2.67771,2.67771,0,0,1-.15039.89649,1.32847,1.32847,0,0,1-.416.60058.96857.96857,0,0,1-.63574.209A.98168.98168,0,0,1,119.915,85.58008Zm.96582-.71387a1.87233,1.87233,0,0,0,.18457-.87695,1.82881,1.82881,0,0,0-.16406-.88184.51965.51965,0,0,0-.95606-.01269,1.83315,1.83315,0,0,0-.18554.877,1.80785,1.80785,0,0,0,.165.87793.51846.51846,0,0,0,.95606.0166Z"/><path class="a6f18138-c656-4d9f-a0e6-d53b913e3ce0" d="M122.73926,85.61816a1.0906,1.0906,0,0,1-.36817-.33789,1.65753,1.65753,0,0,1-.23632-.54687,2.85089,2.85089,0,0,1-.07715-.73145,2.62955,2.62955,0,0,1,.15136-.89453,1.34258,1.34258,0,0,1,.416-.60254.96679.96679,0,0,1,.63379-.209.9951.9951,0,0,1,.47559.12207,1.1194,1.1194,0,0,1,.36816.33789,1.6819,1.6819,0,0,1,.23633.5459,2.83985,2.83985,0,0,1,.07715.73242,2.682,2.682,0,0,1-.1504.89648,1.33378,1.33378,0,0,1-.416.60059,1.033,1.033,0,0,1-1.11035.08691Zm.96679-.71386a1.87516,1.87516,0,0,0,.18457-.877,1.82607,1.82607,0,0,0-.16406-.88183.52039.52039,0,0,0-.957-.0127,1.83333,1.83333,0,0,0-.18555.877,1.81033,1.81033,0,0,0,.165.87793.51918.51918,0,0,0,.957.0166Z"/></g></g><path class="b34e85db-ee57-4bc4-a968-ec3c3b8a1ac3" d="M76.0763,117.08454h52.4146a0,0,0,0,1,0,0v3.88128a1.84211,1.84211,0,0,1-1.84211,1.84211H77.9184a1.84211,1.84211,0,0,1-1.84211-1.84211v-3.88128A0,0,0,0,1,76.0763,117.08454Z"/></svg>