<svg id="aa6fb443-2035-4e66-b197-e9e64df44f32" data-name="Calque 1" xmlns="http://www.w3.org/2000/svg" xmlns:xlink="http://www.w3.org/1999/xlink" viewBox="0 0 140 140"><defs><style>.a30c6631-1a0e-463a-b8d3-0f758a88470c{fill:url(#e86348b6-f204-4c5d-bdd8-d24b892af55b);}.e5cf6c24-6ebf-4243-b76b-8f17d26fcf54{fill:none;}.e125b7c2-48c2-4f6d-be99-b64fc594c480{fill:url(#aae22265-0fc0-4b41-9477-931d08edf58f);}.b8bffdc3-04a1-4ee3-98b8-406fad6de3c2,.e3f72f7f-cc30-46a8-bd7f-a4b22d6778a3{fill:#fff;}.a88657e0-ed9a-4ac9-aa31-e741146cb4e7{isolation:isolate;}.ab3c5026-0d20-4ea1-9df1-62ef40823f32{fill:#687583;}.b8bffdc3-04a1-4ee3-98b8-406fad6de3c2{opacity:0.75;}</style><linearGradient id="e86348b6-f204-4c5d-bdd8-d24b892af55b" x1="-170.45299" y1="-16.61691" x2="-170.45299" y2="-17.14855" gradientTransform="matrix(158, 0, 0, -73, 27001.57437, -1148.08681)" gradientUnits="userSpaceOnUse"><stop offset="0" stop-color="#ffbb03"/><stop offset="1" stop-color="#ff8501"/></linearGradient><linearGradient id="aae22265-0fc0-4b41-9477-931d08edf58f" x1="69.99777" y1="103.76001" x2="69.99777" y2="36.23999" gradientUnits="userSpaceOnUse"><stop offset="0" stop-color="#2611e7"/><stop offset="0.12112" stop-color="#2917e6"/><stop offset="0.2903" stop-color="#312ae5"/><stop offset="0.48774" stop-color="#3e47e2"/><stop offset="0.70656" stop-color="#5071de"/><stop offset="0.94038" stop-color="#67a5d8"/><stop offset="1" stop-color="#6db4d7"/></linearGradient></defs><title>Sans titre - 2</title><g id="fdb5ba5c-0ac9-46f0-8c5c-c672176d6d9b" data-name="medium"><rect id="b41b5ef5-b6c4-403e-b47a-36e01818b66f" data-name="Rectangle 27-2" class="a30c6631-1a0e-463a-b8d3-0f758a88470c" x="31.98947" y="64.94747" width="76.02553" height="38.81013"/><polygon class="e5cf6c24-6ebf-4243-b76b-8f17d26fcf54" points="108.011 36.24 108.011 52.19 93.584 36.24 108.011 36.24"/><polygon class="e125b7c2-48c2-4f6d-be99-b64fc594c480" points="108.011 52.19 108.011 103.76 31.985 103.76 31.985 36.24 93.584 36.24 108.011 52.19"/><polygon class="e3f72f7f-cc30-46a8-bd7f-a4b22d6778a3" points="108.011 52.19 93.584 52.19 93.584 36.24 108.011 52.19"/><g id="b362354c-18ab-4d88-b449-c53ce428af4a" data-name=" 16" class="a88657e0-ed9a-4ac9-aa31-e741146cb4e7"><g class="a88657e0-ed9a-4ac9-aa31-e741146cb4e7"><path class="ab3c5026-0d20-4ea1-9df1-62ef40823f32" d="M96.27875,49.95937a1.415,1.415,0,0,1-.48144-.43262,2.14251,2.14251,0,0,1-.31445-.706,3.69638,3.69638,0,0,1-.11328-.94825,3.47261,3.47261,0,0,1,.18066-1.166,1.75865,1.75865,0,0,1,.52832-.78906,1.2519,1.2519,0,0,1,.81543-.28321,1.28328,1.28328,0,0,1,.61719.15137,1.419,1.419,0,0,1,.48242.43262,2.14626,2.14626,0,0,1,.31445.70508,3.64585,3.64585,0,0,1,.11328.94921,3.49485,3.49485,0,0,1-.17871,1.168,1.73676,1.73676,0,0,1-.52832.78711,1.32811,1.32811,0,0,1-1.43555.13184ZM97.518,49.015a2.42063,2.42063,0,0,0,.22266-1.14258,2.38666,2.38666,0,0,0-.22656-1.14257.67238.67238,0,0,0-1.23828,0,2.39911,2.39911,0,0,0-.22559,1.14257,2.37316,2.37316,0,0,0,.22851,1.1377A.671.671,0,0,0,97.518,49.015Z"/><path class="ab3c5026-0d20-4ea1-9df1-62ef40823f32" d="M99.93012,49.95937a1.4149,1.4149,0,0,1-.48144-.43262,2.14272,2.14272,0,0,1-.31446-.706,3.69682,3.69682,0,0,1-.11328-.94825,3.4726,3.4726,0,0,1,.18067-1.166,1.75865,1.75865,0,0,1,.52832-.78906,1.2519,1.2519,0,0,1,.81543-.28321,1.28324,1.28324,0,0,1,.61718.15137,1.419,1.419,0,0,1,.48243.43262,2.14647,2.14647,0,0,1,.31445.70508,3.64585,3.64585,0,0,1,.11328.94921,3.49485,3.49485,0,0,1-.17871,1.168,1.73676,1.73676,0,0,1-.52832.78711,1.32811,1.32811,0,0,1-1.43555.13184Zm1.23926-.94434a2.42063,2.42063,0,0,0,.22266-1.14258,2.38653,2.38653,0,0,0-.22657-1.14257.67238.67238,0,0,0-1.23828,0,2.39924,2.39924,0,0,0-.22558,1.14257,2.37316,2.37316,0,0,0,.22851,1.1377.671.671,0,0,0,1.23926.00488Z"/></g></g><rect id="b86043e0-daea-4951-a09e-f97b1fcade59" data-name="Rectangle-2" class="b8bffdc3-04a1-4ee3-98b8-406fad6de3c2" x="31.98947" y="97.37785" width="76.02553" height="6.37975"/><g id="fc657cf4-9592-4260-ab51-7d3672117f36" data-name="Group 21"><path id="f1a88e98-7d5f-438f-8668-fec12459fdc4" data-name="Rectangle-3" class="e3f72f7f-cc30-46a8-bd7f-a4b22d6778a3" d="M37.96164,57.23874H79.73693A1.115,1.115,0,0,1,80.89736,58.302v5.8481a1.115,1.115,0,0,1-1.16043,1.06329H37.96164a1.115,1.115,0,0,1-1.16043-1.06329V58.302A1.115,1.115,0,0,1,37.96164,57.23874Z"/></g><g id="aeb68da2-eb66-4724-b881-100cb68370bf" data-name="Group 21"><path id="b7826193-88cd-4c3c-a47f-d233ffac697f" data-name="Rectangle-3" class="e3f72f7f-cc30-46a8-bd7f-a4b22d6778a3" d="M77.48394,84.61859h7.91072c.12136,0,.21974.47605.21974,1.06329V91.53c0,.58724-.09838,1.06329-.21974,1.06329H77.48394c-.12136,0-.21975-.47605-.21975-1.06329v-5.8481C77.26419,85.09464,77.36258,84.61859,77.48394,84.61859Z"/></g></g></svg>