<svg id="e28ee413-0785-4eef-831b-ee4671e68dce" data-name="Calque 1" xmlns="http://www.w3.org/2000/svg" xmlns:xlink="http://www.w3.org/1999/xlink" viewBox="0 0 140 140"><defs><style>.b65dc0af-0e97-4588-a32c-04c906715845{fill:url(#b7034f01-c7b7-4023-a9bc-5d1e72f23cf5);}.a862ae11-1b67-4bde-99ab-d14652575810{fill:#f2f2f2;}.aef9df5f-4c68-4e02-ac07-a4f473969b00{isolation:isolate;}.b3cb2041-6b52-475c-8371-579af4b76476,.eb772c46-51e2-49ef-bf0e-d6207e648604{fill:#fff;}.eb772c46-51e2-49ef-bf0e-d6207e648604{opacity:0.55;}</style><linearGradient id="b7034f01-c7b7-4023-a9bc-5d1e72f23cf5" x1="-170.88084" y1="162.60448" x2="-170.88084" y2="162.15323" gradientTransform="matrix(177.99786, 0.87698, 0.77352, -156.99811, 30360.81609, 25714.0902)" gradientUnits="userSpaceOnUse"><stop offset="0" stop-color="#fad961"/><stop offset="0.35922" stop-color="#f9b64b"/><stop offset="1" stop-color="#f76b1c"/></linearGradient></defs><title>Sans titre - 2</title><path id="b8c63b0d-505f-4543-bc28-8a2e36cd2430" data-name="Mask-6" class="b65dc0af-0e97-4588-a32c-04c906715845" d="M33.8337,35.45489l72.67123.358a2.62724,2.62724,0,0,1,2.61427,2.64015l-.31275,63.47775a2.62725,2.62725,0,0,1-2.64015,2.61427l-72.67123,0A2.62724,2.62724,0,0,1,30.8808,101.905l.31275-63.83583A2.62725,2.62725,0,0,1,33.8337,35.45489Z"/><g id="a6455e6a-e751-484d-a520-5cec945a026d" data-name="Group 17"><path id="a3256920-005c-44cf-8e18-5130fb1221d5" data-name="Rectangle-2" class="a862ae11-1b67-4bde-99ab-d14652575810" d="M77.58253,77.89383H87.94691a1.18392,1.18392,0,0,1,1.1516,1.21379v6.67582a1.18393,1.18393,0,0,1-1.1516,1.21379H77.58253a1.18393,1.18393,0,0,1-1.1516-1.21379V79.10762A1.18392,1.18392,0,0,1,77.58253,77.89383Z"/></g><g id="f7655123-3f82-4442-acc2-d9fda71bf887" data-name=" 02" class="aef9df5f-4c68-4e02-ac07-a4f473969b00"><g class="aef9df5f-4c68-4e02-ac07-a4f473969b00"><path class="b3cb2041-6b52-475c-8371-579af4b76476" d="M96.09321,49.168a1.6348,1.6348,0,0,1-.54883-.501,2.47746,2.47746,0,0,1-.35156-.812,4.21752,4.21752,0,0,1-.11524-1.08447,3.906,3.906,0,0,1,.22657-1.32862,1.996,1.996,0,0,1,.61914-.89257,1.44667,1.44667,0,0,1,.94336-.31153,1.48465,1.48465,0,0,1,.708.18213,1.64034,1.64034,0,0,1,.54981.50147,2.462,2.462,0,0,1,.35156.81054,4.166,4.166,0,0,1,.11523,1.08545,3.9553,3.9553,0,0,1-.2246,1.33106,1.96508,1.96508,0,0,1-.61915.89062,1.53878,1.53878,0,0,1-1.65429.12891Zm1.44043-1.05957a2.73016,2.73016,0,0,0,.27441-1.30127,2.702,2.702,0,0,0-.24414-1.30811.776.776,0,0,0-1.42578-.019,2.73019,2.73019,0,0,0-.27734,1.30127,2.69256,2.69256,0,0,0,.24707,1.30322.77452.77452,0,0,0,1.42578.02393Z"/><path class="b3cb2041-6b52-475c-8371-579af4b76476" d="M100.29536,49.22412a1.62558,1.62558,0,0,1-.54883-.501,2.47716,2.47716,0,0,1-.35156-.812,4.217,4.217,0,0,1-.11524-1.08447,3.90618,3.90618,0,0,1,.22656-1.32861,1.99609,1.99609,0,0,1,.61914-.89258,1.4494,1.4494,0,0,1,.94336-.31152,1.4904,1.4904,0,0,1,.708.18212,1.64661,1.64661,0,0,1,.54883.50147,2.46217,2.46217,0,0,1,.35156.81055,4.16586,4.16586,0,0,1,.11524,1.08545,3.95523,3.95523,0,0,1-.22461,1.33105,1.965,1.965,0,0,1-.61914.89062,1.53716,1.53716,0,0,1-1.65332.12891Zm1.43945-1.05957a2.73016,2.73016,0,0,0,.27441-1.30127,2.70179,2.70179,0,0,0-.24414-1.3081.77527.77527,0,0,0-1.4248-.01905,2.7303,2.7303,0,0,0-.27735,1.30127,2.69274,2.69274,0,0,0,.24707,1.30322.77379.77379,0,0,0,1.42481.02393Z"/></g></g><path class="eb772c46-51e2-49ef-bf0e-d6207e648604" d="M30.88077,96.03146h77.968a0,0,0,0,1,0,0v4.97368a3.54,3.54,0,0,1-3.54,3.54h-70.888a3.54,3.54,0,0,1-3.54-3.54V96.03146a0,0,0,0,1,0,0Z"/><g id="e9659305-f8f2-4900-aa34-4ed1b3e50bd1" data-name="Group 21"><path id="bc5ea22b-9557-4a4d-b5f3-b8d0e03fcfad" data-name="Rectangle" class="a862ae11-1b67-4bde-99ab-d14652575810" d="M36.83514,55.7357h41.5507c.63744,0,1.15419.30242,1.15419.67546v3.715c0,.373-.51675.67546-1.15419.67546H36.83514c-.63744,0-1.15419-.30241-1.15419-.67546v-3.715C35.681,56.03812,36.1977,55.7357,36.83514,55.7357Z"/></g></svg>