<svg id="ea372ed6-44cd-4c06-a0c4-b0d9c00c3bb9" data-name="Calque 1" xmlns="http://www.w3.org/2000/svg" xmlns:xlink="http://www.w3.org/1999/xlink" viewBox="0 0 140 140"><defs><style>.b6dc1f9c-f052-4323-966e-9b3138d86831{fill:#f2f2f2;}.fd2ab32e-48bc-4bd9-bf17-647dc856d962{isolation:isolate;}.af89aad8-317f-4126-b21d-ef663cce59d6,.eebc7e0b-0fed-49be-ac2f-86f636c5f7bd,.f6d46afc-68df-45e8-9b00-0b313f1f0c23{fill:#fff;}.af89aad8-317f-4126-b21d-ef663cce59d6{opacity:0.55;}.fb07e248-3d90-47ed-b8fd-7937a26aa6cc{fill:url(#a7368301-cd4f-4d5c-aad6-de474baf42b7);}.f79a6c3a-68f9-4e70-a5d1-22f02184c990{fill:none;}.b5a2455e-e55c-4afd-97c1-aa56236fde15{fill:url(#faffeda0-185f-4003-a232-1d4f73d1f6ea);}.fa18dc6e-8617-49f1-80c6-980694702fea{fill:#687583;}.eebc7e0b-0fed-49be-ac2f-86f636c5f7bd{opacity:0.75;}.f4a54cb9-68f1-4a19-8f52-f5619446e0e4{fill:url(#b58a066e-fa13-4abc-8054-ae2661f23ca0);}.fae71c6a-7bbb-4798-a701-9cc8526f5484{fill:url(#b0106c00-c5fe-43b6-ab81-5a7d757d26ed);}.bd99942e-c57e-4d6c-8e9d-48328df20c4b{fill:url(#a9fc61dc-7957-4b95-88d7-05f0e44fe1de);}.ec940eb6-ff86-4819-a348-a700517d7378{fill:url(#b0a58c64-b687-445b-b4f3-ecfc7c66d602);}.aac3c7a0-c83b-4c58-ad63-0cb290fcd229{fill:url(#bfa131e0-7ad0-4277-9a4f-bdd713744d8d);}.a6b80925-3108-4c16-a36a-fa76e03291ce{fill:url(#b772f5c1-748d-4f6f-9847-444522714543);}</style><linearGradient id="a7368301-cd4f-4d5c-aad6-de474baf42b7" x1="-334.79162" y1="-16.26443" x2="-334.79162" y2="-16.63222" gradientTransform="matrix(158, 0, 0, -73, 52937, -1148.08681)" gradientUnits="userSpaceOnUse"><stop offset="0" stop-color="#ffbb03"/><stop offset="1" stop-color="#ff8501"/></linearGradient><linearGradient id="faffeda0-185f-4003-a232-1d4f73d1f6ea" x1="39.92148" y1="66.06671" x2="39.92148" y2="19.35736" gradientUnits="userSpaceOnUse"><stop offset="0" stop-color="#fad961"/><stop offset="0.35922" stop-color="#f9b64b"/><stop offset="1" stop-color="#f76b1c"/></linearGradient><linearGradient id="b58a066e-fa13-4abc-8054-ae2661f23ca0" x1="-334.39635" y1="-16.26443" x2="-334.39635" y2="-16.63222" xlink:href="#a7368301-cd4f-4d5c-aad6-de474baf42b7"/><linearGradient id="b0106c00-c5fe-43b6-ab81-5a7d757d26ed" x1="102.37296" y1="66.06671" x2="102.37296" y2="19.35736" gradientUnits="userSpaceOnUse"><stop offset="0" stop-color="#1180e7"/><stop offset="1" stop-color="#d1e6f0"/></linearGradient><linearGradient id="a9fc61dc-7957-4b95-88d7-05f0e44fe1de" x1="-334.79162" y1="-17.04351" x2="-334.79162" y2="-17.41129" xlink:href="#a7368301-cd4f-4d5c-aad6-de474baf42b7"/><linearGradient id="b0a58c64-b687-445b-b4f3-ecfc7c66d602" x1="39.92148" y1="122.93936" x2="39.92148" y2="76.23001" gradientUnits="userSpaceOnUse"><stop offset="0" stop-color="#2611e7"/><stop offset="0.12112" stop-color="#2917e6"/><stop offset="0.2903" stop-color="#312ae5"/><stop offset="0.48774" stop-color="#3e47e2"/><stop offset="0.70656" stop-color="#5071de"/><stop offset="0.94038" stop-color="#67a5d8"/><stop offset="1" stop-color="#6db4d7"/></linearGradient><linearGradient id="bfa131e0-7ad0-4277-9a4f-bdd713744d8d" x1="-334.39635" y1="-17.04351" x2="-334.39635" y2="-17.41129" xlink:href="#a7368301-cd4f-4d5c-aad6-de474baf42b7"/><linearGradient id="b772f5c1-748d-4f6f-9847-444522714543" x1="102.37296" y1="122.93936" x2="102.37296" y2="76.23001" gradientUnits="userSpaceOnUse"><stop offset="0" stop-color="#ffe802"/><stop offset="1" stop-color="#fdcc01"/></linearGradient></defs><title>Sans titre - 2</title><g id="a3795709-2844-45b9-9063-60156149c121" data-name="Group 21"><path id="e1b7e4bf-08e3-4aaa-b76c-2c087b9ba0d3" data-name="Rectangle" class="b6dc1f9c-f052-4323-966e-9b3138d86831" d="M19.91666,33.97287h26.0336c.39938,0,.72315.21828.72315.48753v2.68139c0,.26925-.32377.48753-.72315.48753H19.91666c-.39939,0-.72316-.21828-.72316-.48753V34.4604C19.1935,34.19115,19.51727,33.97287,19.91666,33.97287Z"/></g><g id="f4584685-8c56-469a-9cd5-363a5f3c0306" data-name="Group 17"><path id="a676c1c3-fbfe-4b4b-bf28-1dc1c9084017" data-name="Rectangle-2" class="b6dc1f9c-f052-4323-966e-9b3138d86831" d="M45.02044,47.99426H51.988a.7959.7959,0,0,1,.77417.816v4.48787a.7959.7959,0,0,1-.77417.816H45.02044a.7959.7959,0,0,1-.77417-.816V48.81024A.7959.7959,0,0,1,45.02044,47.99426Z"/></g><g id="b438500a-7bf3-463e-81e3-08bc3faf39a9" data-name=" 02" class="fd2ab32e-48bc-4bd9-bf17-647dc856d962"><g class="fd2ab32e-48bc-4bd9-bf17-647dc856d962"><path class="f6d46afc-68df-45e8-9b00-0b313f1f0c23" d="M57.43164,28.70546a1.08071,1.08071,0,0,1-.36816-.33789,1.64862,1.64862,0,0,1-.23633-.54687,2.8431,2.8431,0,0,1-.07715-.73047,2.65518,2.65518,0,0,1,.15137-.89551,1.3469,1.3469,0,0,1,.416-.60156.96758.96758,0,0,1,.63379-.21,1.00627,1.00627,0,0,1,.47559.12207,1.10294,1.10294,0,0,1,.36816.33886,1.67607,1.67607,0,0,1,.23633.54493,2.80727,2.80727,0,0,1,.07715.73242,2.70314,2.70314,0,0,1-.14942.89648,1.33761,1.33761,0,0,1-.417.60059.97121.97121,0,0,1-.63672.209A.98171.98171,0,0,1,57.43164,28.70546Zm.9668-.71386a1.84876,1.84876,0,0,0,.18457-.877,1.82879,1.82879,0,0,0-.16406-.88183.52039.52039,0,0,0-.957-.0127,1.836,1.836,0,0,0-.18554.877,1.81656,1.81656,0,0,0,.165.87793.51918.51918,0,0,0,.957.01661Z"/><path class="f6d46afc-68df-45e8-9b00-0b313f1f0c23" d="M60.25684,28.74355a1.09051,1.09051,0,0,1-.36817-.33789,1.64888,1.64888,0,0,1-.23633-.54688,2.84833,2.84833,0,0,1-.07714-.73047,2.65517,2.65517,0,0,1,.15136-.8955,1.34143,1.34143,0,0,1,.416-.60157.96238.96238,0,0,1,.63379-.21.99138.99138,0,0,1,.47461.12207,1.11,1.11,0,0,1,.36816.33789,1.68209,1.68209,0,0,1,.23633.5459,2.798,2.798,0,0,1,.07715.73242,2.70785,2.70785,0,0,1-.14942.89649,1.343,1.343,0,0,1-.417.60058,1.03129,1.03129,0,0,1-1.10937.08692Zm.96582-.71387a1.85152,1.85152,0,0,0,.18457-.877,1.82622,1.82622,0,0,0-.16407-.88184.51964.51964,0,0,0-.95605-.01269,2.284,2.284,0,0,0-.02051,1.75488.51846.51846,0,0,0,.95606.0166Z"/></g></g><path class="af89aad8-317f-4126-b21d-ef663cce59d6" d="M13.62481,60.18742h52.4146a0,0,0,0,1,0,0v3.88128a1.84211,1.84211,0,0,1-1.84211,1.84211H15.46692a1.84211,1.84211,0,0,1-1.84211-1.84211V60.18742A0,0,0,0,1,13.62481,60.18742Z"/><g id="af507afa-60ba-4a20-aed1-bcb86e53bbae" data-name="Group 21"><path id="f1fc292c-bac7-4d7d-9c41-2b4602a68f51" data-name="Rectangle" class="b6dc1f9c-f052-4323-966e-9b3138d86831" d="M82.78751,33.97287H108.8211c.39939,0,.72316.21828.72316.48753v2.68139c0,.26925-.32377.48753-.72316.48753H82.78751c-.39939,0-.72316-.21828-.72316-.48753V34.4604C82.06435,34.19115,82.38812,33.97287,82.78751,33.97287Z"/></g><g id="a0904b19-34c3-4cba-8166-52bbaca59ed1" data-name="Group 17"><path id="a9b829c1-3d04-49d2-95a2-88773cc3614c" data-name="Rectangle-2" class="b6dc1f9c-f052-4323-966e-9b3138d86831" d="M107.47193,47.99426h6.96753a.7959.7959,0,0,1,.77418.816v4.48787a.79591.79591,0,0,1-.77418.816h-6.96753a.79591.79591,0,0,1-.77418-.816V48.81024A.7959.7959,0,0,1,107.47193,47.99426Z"/></g><g id="a708d717-8fcb-4344-a363-27a6a8e8e17c" data-name=" 02" class="fd2ab32e-48bc-4bd9-bf17-647dc856d962"><g class="fd2ab32e-48bc-4bd9-bf17-647dc856d962"><path class="f6d46afc-68df-45e8-9b00-0b313f1f0c23" d="M119.88281,28.70546a1.08071,1.08071,0,0,1-.36816-.33789,1.64862,1.64862,0,0,1-.23633-.54687,2.84354,2.84354,0,0,1-.07715-.73047,2.65543,2.65543,0,0,1,.15137-.89551,1.3469,1.3469,0,0,1,.416-.60156.9676.9676,0,0,1,.63379-.21,1.00621,1.00621,0,0,1,.47559.12207,1.10294,1.10294,0,0,1,.36816.33886,1.67585,1.67585,0,0,1,.23633.54493,2.80641,2.80641,0,0,1,.07715.73242,2.70341,2.70341,0,0,1-.14941.89648,1.33763,1.33763,0,0,1-.417.60059.9712.9712,0,0,1-.63671.209A.98172.98172,0,0,1,119.88281,28.70546Zm.9668-.71386a1.84864,1.84864,0,0,0,.18457-.877,1.82867,1.82867,0,0,0-.16406-.88183.52039.52039,0,0,0-.957-.0127,1.836,1.836,0,0,0-.18555.877,1.81668,1.81668,0,0,0,.165.87793.51918.51918,0,0,0,.957.01661Z"/><path class="f6d46afc-68df-45e8-9b00-0b313f1f0c23" d="M122.708,28.74355a1.0906,1.0906,0,0,1-.36817-.33789,1.64867,1.64867,0,0,1-.23632-.54688,2.84787,2.84787,0,0,1-.07715-.73047,2.65517,2.65517,0,0,1,.15136-.8955,1.34151,1.34151,0,0,1,.416-.60157.96238.96238,0,0,1,.63379-.21.99138.99138,0,0,1,.47461.12207,1.11,1.11,0,0,1,.36816.33789,1.68166,1.68166,0,0,1,.23633.5459,2.79761,2.79761,0,0,1,.07715.73242,2.70786,2.70786,0,0,1-.14941.89649,1.343,1.343,0,0,1-.417.60058,1.03129,1.03129,0,0,1-1.10937.08692Zm.96582-.71387a1.8514,1.8514,0,0,0,.18457-.877,1.82634,1.82634,0,0,0-.16406-.88184.51965.51965,0,0,0-.95606-.01269,2.284,2.284,0,0,0-.02051,1.75488.51846.51846,0,0,0,.95606.0166Z"/></g></g><path class="af89aad8-317f-4126-b21d-ef663cce59d6" d="M76.0763,60.18742h52.4146a0,0,0,0,1,0,0v3.88128a1.84211,1.84211,0,0,1-1.84211,1.84211H77.9184a1.84211,1.84211,0,0,1-1.84211-1.84211V60.18742A0,0,0,0,1,76.0763,60.18742Z"/><g id="ab89e0a4-68df-4e71-a2fa-22a219f63ae9" data-name="Group 21"><path id="bd5d4dd4-eae8-4782-8994-72e453eeb133" data-name="Rectangle" class="b6dc1f9c-f052-4323-966e-9b3138d86831" d="M19.91666,90.87h26.0336c.39938,0,.72315.21828.72315.48753v2.68139c0,.26925-.32377.48753-.72315.48753H19.91666c-.39939,0-.72316-.21828-.72316-.48753V91.35752C19.1935,91.08827,19.51727,90.87,19.91666,90.87Z"/></g><g id="a3ac49f8-dc9f-42c7-b4fb-c3ab2e19826d" data-name="Group 17"><path id="b8e864d7-242c-4660-82ff-f6e811353127" data-name="Rectangle-2" class="b6dc1f9c-f052-4323-966e-9b3138d86831" d="M45.02044,104.89138H51.988a.79589.79589,0,0,1,.77417.816v4.48788a.7959.7959,0,0,1-.77417.816H45.02044a.7959.7959,0,0,1-.77417-.816v-4.48788A.79589.79589,0,0,1,45.02044,104.89138Z"/></g><g id="b9a9fa4c-3fd9-495e-bcd5-48db425df6f1" data-name=" 02" class="fd2ab32e-48bc-4bd9-bf17-647dc856d962"><g class="fd2ab32e-48bc-4bd9-bf17-647dc856d962"><path class="f6d46afc-68df-45e8-9b00-0b313f1f0c23" d="M57.43164,85.60292a1.10052,1.10052,0,0,1-.36816-.33789,1.66665,1.66665,0,0,1-.23633-.54687,2.85089,2.85089,0,0,1-.07715-.73145,2.6536,2.6536,0,0,1,.15137-.89453,1.3447,1.3447,0,0,1,.416-.60254.97294.97294,0,0,1,.63379-.21,1.00716,1.00716,0,0,1,.47559.12305,1.0997,1.0997,0,0,1,.36816.33789,1.68168,1.68168,0,0,1,.23633.5459,2.79794,2.79794,0,0,1,.07715.73242,2.70758,2.70758,0,0,1-.14942.89648,1.34846,1.34846,0,0,1-.417.60059,1.033,1.033,0,0,1-1.11035.08691Zm.9668-.71386a1.853,1.853,0,0,0,.18457-.87793,1.82457,1.82457,0,0,0-.16406-.88086.52008.52008,0,0,0-.957-.01367,1.84022,1.84022,0,0,0-.18554.87792,1.8149,1.8149,0,0,0,.165.877.51951.51951,0,0,0,.957.01758Z"/><path class="f6d46afc-68df-45e8-9b00-0b313f1f0c23" d="M60.25684,85.641a1.10056,1.10056,0,0,1-.36817-.33789,1.66353,1.66353,0,0,1-.23633-.54785,2.83879,2.83879,0,0,1-.07714-.73047,2.66386,2.66386,0,0,1,.15136-.89551,1.34684,1.34684,0,0,1,.416-.60156.96756.96756,0,0,1,.63379-.21,1.00327,1.00327,0,0,1,.47461.123,1.08986,1.08986,0,0,1,.36816.33789,1.67276,1.67276,0,0,1,.23633.5459,2.79506,2.79506,0,0,1,.07715.73145,2.699,2.699,0,0,1-.14942.89648,1.33756,1.33756,0,0,1-.417.60059.97469.97469,0,0,1-.63574.21A.99271.99271,0,0,1,60.25684,85.641Zm.96582-.71484a2.30541,2.30541,0,0,0,.0205-1.75879.51964.51964,0,0,0-.95605-.0127,1.83608,1.83608,0,0,0-.18555.877,1.8168,1.8168,0,0,0,.165.87793.51846.51846,0,0,0,.95606.01661Z"/></g></g><path class="af89aad8-317f-4126-b21d-ef663cce59d6" d="M13.62481,117.08454h52.4146a0,0,0,0,1,0,0v3.88128a1.84211,1.84211,0,0,1-1.84211,1.84211H15.46692a1.84211,1.84211,0,0,1-1.84211-1.84211v-3.88128A0,0,0,0,1,13.62481,117.08454Z"/><g id="a6871f68-6f28-45b2-8df3-6e2268a37950" data-name="Group 21"><path id="affc827b-410e-45d7-a419-6c064cb64e17" data-name="Rectangle" class="b6dc1f9c-f052-4323-966e-9b3138d86831" d="M82.78751,90.87H108.8211c.39939,0,.72316.21828.72316.48753v2.68139c0,.26925-.32377.48753-.72316.48753H82.78751c-.39939,0-.72316-.21828-.72316-.48753V91.35752C82.06435,91.08827,82.38812,90.87,82.78751,90.87Z"/></g><g id="b873cb58-d66d-479a-86c1-c23b0300ea5e" data-name="Group 17"><path id="b7ff47e0-5cf2-4616-a9ab-d873e88c8508" data-name="Rectangle-2" class="b6dc1f9c-f052-4323-966e-9b3138d86831" d="M107.47193,104.89138h6.96753a.7959.7959,0,0,1,.77418.816v4.48788a.79591.79591,0,0,1-.77418.816h-6.96753a.79591.79591,0,0,1-.77418-.816v-4.48788A.7959.7959,0,0,1,107.47193,104.89138Z"/></g><g id="baa4fc74-1a05-407c-9976-8bc5c938f989" data-name=" 02" class="fd2ab32e-48bc-4bd9-bf17-647dc856d962"><g class="fd2ab32e-48bc-4bd9-bf17-647dc856d962"><path class="f6d46afc-68df-45e8-9b00-0b313f1f0c23" d="M119.88281,85.60292a1.10052,1.10052,0,0,1-.36816-.33789,1.66665,1.66665,0,0,1-.23633-.54687,2.85134,2.85134,0,0,1-.07715-.73145,2.65385,2.65385,0,0,1,.15137-.89453,1.3447,1.3447,0,0,1,.416-.60254.973.973,0,0,1,.63379-.21,1.0071,1.0071,0,0,1,.47559.12305,1.0997,1.0997,0,0,1,.36816.33789,1.68147,1.68147,0,0,1,.23633.5459,2.79709,2.79709,0,0,1,.07715.73242,2.70784,2.70784,0,0,1-.14941.89648,1.34847,1.34847,0,0,1-.417.60059,1.033,1.033,0,0,1-1.11035.08691Zm.9668-.71386a1.85293,1.85293,0,0,0,.18457-.87793,1.82445,1.82445,0,0,0-.16406-.88086.52008.52008,0,0,0-.957-.01367,1.84021,1.84021,0,0,0-.18555.87792,1.815,1.815,0,0,0,.165.877.51951.51951,0,0,0,.957.01758Z"/><path class="f6d46afc-68df-45e8-9b00-0b313f1f0c23" d="M122.708,85.641a1.10065,1.10065,0,0,1-.36817-.33789,1.66331,1.66331,0,0,1-.23632-.54785,2.83833,2.83833,0,0,1-.07715-.73047,2.66386,2.66386,0,0,1,.15136-.89551,1.34692,1.34692,0,0,1,.416-.60156.96756.96756,0,0,1,.63379-.21,1.00327,1.00327,0,0,1,.47461.123,1.08986,1.08986,0,0,1,.36816.33789,1.67234,1.67234,0,0,1,.23633.5459,2.79463,2.79463,0,0,1,.07715.73145,2.699,2.699,0,0,1-.14941.89648,1.33757,1.33757,0,0,1-.417.60059.97469.97469,0,0,1-.63574.21A.99274.99274,0,0,1,122.708,85.641Zm.96582-.71484a2.30547,2.30547,0,0,0,.02051-1.75879.51965.51965,0,0,0-.95606-.0127,1.83608,1.83608,0,0,0-.18555.877,1.8168,1.8168,0,0,0,.165.87793.51846.51846,0,0,0,.95606.01661Z"/></g></g><path class="af89aad8-317f-4126-b21d-ef663cce59d6" d="M76.0763,117.08454h52.4146a0,0,0,0,1,0,0v3.88128a1.84211,1.84211,0,0,1-1.84211,1.84211H77.9184a1.84211,1.84211,0,0,1-1.84211-1.84211v-3.88128A0,0,0,0,1,76.0763,117.08454Z"/><g id="ae5c7b72-71f8-49ec-b5ac-31b59352b290" data-name="medium"><rect id="b6899f16-9daf-4c3a-8b30-4fddadceafcb" data-name="Rectangle 27-2" class="fb07e248-3d90-47ed-b8fd-7937a26aa6cc" x="13.6279" y="39.21677" width="52.59333" height="26.84827"/><polygon class="f79a6c3a-68f9-4e70-a5d1-22f02184c990" points="66.218 19.357 66.218 30.391 56.238 19.357 66.218 19.357"/><polygon class="b5a2455e-e55c-4afd-97c1-aa56236fde15" points="66.218 30.391 66.218 66.067 13.625 66.067 13.625 19.357 56.238 19.357 66.218 30.391"/><polygon class="f6d46afc-68df-45e8-9b00-0b313f1f0c23" points="66.218 30.391 56.238 30.391 56.238 19.357 66.218 30.391"/><g id="ff2e6bee-e067-40ff-96e8-fd287bcac450" data-name=" 16" class="fd2ab32e-48bc-4bd9-bf17-647dc856d962"><g class="fd2ab32e-48bc-4bd9-bf17-647dc856d962"><path class="fa18dc6e-8617-49f1-80c6-980694702fea" d="M58.10352,28.849a.97689.97689,0,0,1-.333-.29883,1.4835,1.4835,0,0,1-.21778-.48828,2.56034,2.56034,0,0,1-.07812-.65528,2.39839,2.39839,0,0,1,.125-.80566,1.19861,1.19861,0,0,1,.36523-.54492.86556.86556,0,0,1,.56446-.19629.89047.89047,0,0,1,.42675.10449.9709.9709,0,0,1,.334.29883,1.49671,1.49671,0,0,1,.21777.4873,2.56238,2.56238,0,0,1,.07813.65625,2.39311,2.39311,0,0,1-.124.80664,1.20141,1.20141,0,0,1-.36523.54493.92093.92093,0,0,1-.99316.09082Zm.85742-.65235a1.67764,1.67764,0,0,0,.15429-.79,1.64676,1.64676,0,0,0-.15722-.78906.46473.46473,0,0,0-.85645,0,2.05122,2.05122,0,0,0,.002,1.5752.46424.46424,0,0,0,.85742.0039Z"/><path class="fa18dc6e-8617-49f1-80c6-980694702fea" d="M60.62891,28.849a.97689.97689,0,0,1-.333-.29883,1.4835,1.4835,0,0,1-.21778-.48828A2.56034,2.56034,0,0,1,60,27.40663a2.39839,2.39839,0,0,1,.125-.80566,1.19861,1.19861,0,0,1,.36523-.54492.86556.86556,0,0,1,.56446-.19629.89054.89054,0,0,1,.42676.10449.971.971,0,0,1,.334.29883,1.4965,1.4965,0,0,1,.21777.4873,2.56238,2.56238,0,0,1,.07813.65625,2.39311,2.39311,0,0,1-.124.80664,1.20141,1.20141,0,0,1-.36523.54493.92093.92093,0,0,1-.99316.09082Zm.85742-.65235a1.67764,1.67764,0,0,0,.15429-.79,1.64676,1.64676,0,0,0-.15722-.78906.46473.46473,0,0,0-.85645,0,2.05122,2.05122,0,0,0,.002,1.5752.46424.46424,0,0,0,.85742.0039Z"/></g></g><rect id="a3f41021-8426-416f-92c3-1cf6359e0f85" data-name="Rectangle-2" class="eebc7e0b-0fed-49be-ac2f-86f636c5f7bd" x="13.6279" y="61.65162" width="52.59333" height="4.41341"/><g id="bf0952a0-714e-4895-8b1e-6256a036b984" data-name="Group 21"><path id="eda5d6c3-ffde-4cad-88b4-6275a0439a63" data-name="Rectangle-3" class="f6d46afc-68df-45e8-9b00-0b313f1f0c23" d="M17.75936,33.884H46.65889a.77137.77137,0,0,1,.80276.73556v4.04563a.77137.77137,0,0,1-.80276.73557H17.75936a.77137.77137,0,0,1-.80277-.73557V34.61955A.77137.77137,0,0,1,17.75936,33.884Z"/></g><g id="b4f3e6be-567f-41d9-b993-d45e184a8a32" data-name="Group 21"><path id="a22c7d36-6cd1-4cba-9b51-d8308ec6111e" data-name="Rectangle-3" class="f6d46afc-68df-45e8-9b00-0b313f1f0c23" d="M45.1003,52.825h5.47252c.084,0,.152.32932.152.73557v4.04563c0,.40624-.06806.73556-.152.73556H45.1003c-.084,0-.152-.32932-.152-.73556V53.56053C44.94828,53.15428,45.01634,52.825,45.1003,52.825Z"/></g></g><g id="f6095278-2608-467a-8489-123649eaada4" data-name="medium"><rect id="a94c817f-8d26-4959-8840-871d90962b7a" data-name="Rectangle 27-2" class="f4a54cb9-68f1-4a19-8f52-f5619446e0e4" x="76.07939" y="39.21677" width="52.59333" height="26.84827"/><polygon class="f79a6c3a-68f9-4e70-a5d1-22f02184c990" points="128.67 19.357 128.67 30.391 118.689 19.357 128.67 19.357"/><polygon class="fae71c6a-7bbb-4798-a701-9cc8526f5484" points="128.67 30.391 128.67 66.067 76.076 66.067 76.076 19.357 118.689 19.357 128.67 30.391"/><polygon class="f6d46afc-68df-45e8-9b00-0b313f1f0c23" points="128.67 30.391 118.689 30.391 118.689 19.357 128.67 30.391"/><g id="f54035e9-d43d-47c9-8ced-189ea9b0969f" data-name=" 16" class="fd2ab32e-48bc-4bd9-bf17-647dc856d962"><g class="fd2ab32e-48bc-4bd9-bf17-647dc856d962"><path class="fa18dc6e-8617-49f1-80c6-980694702fea" d="M120.55469,28.849a.97689.97689,0,0,1-.333-.29883,1.48349,1.48349,0,0,1-.21777-.48828,2.55988,2.55988,0,0,1-.07813-.65528,2.39839,2.39839,0,0,1,.125-.80566,1.19855,1.19855,0,0,1,.36524-.54492.86551.86551,0,0,1,.56445-.19629.89054.89054,0,0,1,.42676.10449.971.971,0,0,1,.334.29883,1.4965,1.4965,0,0,1,.21777.4873,2.56238,2.56238,0,0,1,.07813.65625,2.39336,2.39336,0,0,1-.124.80664,1.2015,1.2015,0,0,1-.36524.54493.92093.92093,0,0,1-.99316.09082Zm.85742-.65235a1.67763,1.67763,0,0,0,.1543-.79,1.64675,1.64675,0,0,0-.15723-.78906.46473.46473,0,0,0-.85645,0,2.05122,2.05122,0,0,0,.002,1.5752.46424.46424,0,0,0,.85742.0039Z"/><path class="fa18dc6e-8617-49f1-80c6-980694702fea" d="M123.08008,28.849a.97689.97689,0,0,1-.333-.29883,1.48349,1.48349,0,0,1-.21777-.48828,2.55988,2.55988,0,0,1-.07813-.65528,2.39839,2.39839,0,0,1,.125-.80566,1.19855,1.19855,0,0,1,.36524-.54492.86551.86551,0,0,1,.56445-.19629.89054.89054,0,0,1,.42676.10449.971.971,0,0,1,.334.29883,1.49651,1.49651,0,0,1,.21778.4873,2.56284,2.56284,0,0,1,.07812.65625,2.39336,2.39336,0,0,1-.124.80664,1.20143,1.20143,0,0,1-.36524.54493.92093.92093,0,0,1-.99316.09082Zm.85742-.65235a1.67763,1.67763,0,0,0,.1543-.79,1.64675,1.64675,0,0,0-.15723-.78906.46473.46473,0,0,0-.85645,0,2.05135,2.05135,0,0,0,.002,1.5752.46424.46424,0,0,0,.85742.0039Z"/></g></g><rect id="b158e7e4-3cf7-44a5-ae7a-c2f30710ca84" data-name="Rectangle-2" class="eebc7e0b-0fed-49be-ac2f-86f636c5f7bd" x="76.07939" y="61.65162" width="52.59333" height="4.41341"/><g id="b47a11ad-3e7e-4f2d-a473-1df4ba9420db" data-name="Group 21"><path id="b4b9f01e-ad38-4fda-87dd-256fb29172ee" data-name="Rectangle-3" class="f6d46afc-68df-45e8-9b00-0b313f1f0c23" d="M80.21084,33.884h28.89954a.77137.77137,0,0,1,.80276.73556v4.04563a.77137.77137,0,0,1-.80276.73557H80.21084a.77137.77137,0,0,1-.80276-.73557V34.61955A.77137.77137,0,0,1,80.21084,33.884Z"/></g><g id="b4010c10-9fc5-47fc-8691-f3b4017c28c3" data-name="Group 21"><path id="a42d1832-0dcf-469b-9c37-fc11ea28b8de" data-name="Rectangle-3" class="f6d46afc-68df-45e8-9b00-0b313f1f0c23" d="M107.55179,52.825h5.47251c.084,0,.152.32932.152.73557v4.04563c0,.40624-.06806.73556-.152.73556h-5.47251c-.084,0-.152-.32932-.152-.73556V53.56053C107.39977,53.15428,107.46783,52.825,107.55179,52.825Z"/></g></g><path class="af89aad8-317f-4126-b21d-ef663cce59d6" d="M13.62481,117.06007h52.4146a0,0,0,0,1,0,0v3.88128a1.84211,1.84211,0,0,1-1.84211,1.84211H15.46692a1.84211,1.84211,0,0,1-1.84211-1.84211v-3.88128A0,0,0,0,1,13.62481,117.06007Z"/><path class="af89aad8-317f-4126-b21d-ef663cce59d6" d="M76.0763,117.06007h52.4146a0,0,0,0,1,0,0v3.88128a1.84211,1.84211,0,0,1-1.84211,1.84211H77.9184a1.84211,1.84211,0,0,1-1.84211-1.84211v-3.88128A0,0,0,0,1,76.0763,117.06007Z"/><g id="ed9400cb-03c0-4d00-a09e-5c29cf713f93" data-name="medium"><rect id="ff2569c5-2596-4034-8d85-9a7941ae05ba" data-name="Rectangle 27-2" class="bd99942e-c57e-4d6c-8e9d-48328df20c4b" x="13.6279" y="96.08942" width="52.59333" height="26.84827"/><polygon class="f79a6c3a-68f9-4e70-a5d1-22f02184c990" points="66.218 76.23 66.218 87.264 56.238 76.23 66.218 76.23"/><polygon class="ec940eb6-ff86-4819-a348-a700517d7378" points="66.218 87.264 66.218 122.939 13.625 122.939 13.625 76.23 56.238 76.23 66.218 87.264"/><polygon class="f6d46afc-68df-45e8-9b00-0b313f1f0c23" points="66.218 87.264 56.238 87.264 56.238 76.23 66.218 87.264"/><g id="ea00e0dd-4856-4c2e-a963-2b81b4a4d661" data-name=" 16" class="fd2ab32e-48bc-4bd9-bf17-647dc856d962"><g class="fd2ab32e-48bc-4bd9-bf17-647dc856d962"><path class="fa18dc6e-8617-49f1-80c6-980694702fea" d="M58.10352,85.72206a.97675.97675,0,0,1-.333-.29882,1.48365,1.48365,0,0,1-.21778-.48829,2.56032,2.56032,0,0,1-.07812-.65527,2.39839,2.39839,0,0,1,.125-.80566,1.19861,1.19861,0,0,1,.36523-.54492.86556.86556,0,0,1,.56446-.19629.89036.89036,0,0,1,.42675.10449.9707.9707,0,0,1,.334.29883,1.49671,1.49671,0,0,1,.21777.4873,2.56227,2.56227,0,0,1,.07813.65625,2.39311,2.39311,0,0,1-.124.80664,1.20143,1.20143,0,0,1-.36523.54492.92088.92088,0,0,1-.99316.09082Zm.85742-.65234a1.67764,1.67764,0,0,0,.15429-.79,1.64676,1.64676,0,0,0-.15722-.78906.46473.46473,0,0,0-.85645,0,2.0512,2.0512,0,0,0,.002,1.57519.46424.46424,0,0,0,.85742.00391Z"/><path class="fa18dc6e-8617-49f1-80c6-980694702fea" d="M60.62891,85.72206a.97675.97675,0,0,1-.333-.29882,1.48365,1.48365,0,0,1-.21778-.48829A2.56032,2.56032,0,0,1,60,84.27968a2.39839,2.39839,0,0,1,.125-.80566,1.19861,1.19861,0,0,1,.36523-.54492.86556.86556,0,0,1,.56446-.19629.89042.89042,0,0,1,.42676.10449.97076.97076,0,0,1,.334.29883,1.4965,1.4965,0,0,1,.21777.4873,2.56227,2.56227,0,0,1,.07813.65625,2.39311,2.39311,0,0,1-.124.80664,1.20143,1.20143,0,0,1-.36523.54492.92088.92088,0,0,1-.99316.09082Zm.85742-.65234a1.67764,1.67764,0,0,0,.15429-.79,1.64676,1.64676,0,0,0-.15722-.78906.46473.46473,0,0,0-.85645,0,2.0512,2.0512,0,0,0,.002,1.57519.46424.46424,0,0,0,.85742.00391Z"/></g></g><rect id="b42eb70c-51bc-43b7-b076-f4e2783da9d7" data-name="Rectangle-2" class="eebc7e0b-0fed-49be-ac2f-86f636c5f7bd" x="13.6279" y="118.52428" width="52.59333" height="4.41341"/><g id="a4289da7-c867-4fb7-9943-7b4701f9db14" data-name="Group 21"><path id="af13d79c-d814-445f-b6ff-264e4ec9f6ef" data-name="Rectangle-3" class="f6d46afc-68df-45e8-9b00-0b313f1f0c23" d="M17.75936,90.75664H46.65889a.77137.77137,0,0,1,.80276.73557v4.04563a.77137.77137,0,0,1-.80276.73556H17.75936a.77137.77137,0,0,1-.80277-.73556V91.49221A.77137.77137,0,0,1,17.75936,90.75664Z"/></g><g id="ef0610e3-c561-4925-a5d7-b6514705fa1c" data-name="Group 21"><path id="a7be1ee1-45e9-42d8-ba4a-f7167dd1908a" data-name="Rectangle-3" class="f6d46afc-68df-45e8-9b00-0b313f1f0c23" d="M45.1003,109.69761h5.47252c.084,0,.152.32932.152.73557v4.04563c0,.40624-.06806.73557-.152.73557H45.1003c-.084,0-.152-.32933-.152-.73557v-4.04563C44.94828,110.02693,45.01634,109.69761,45.1003,109.69761Z"/></g></g><g id="f8afad11-61d5-41c7-800d-228bfbd66559" data-name="medium"><rect id="a8cdf646-e8ed-4ea0-89e8-33c08a6862d0" data-name="Rectangle 27-2" class="aac3c7a0-c83b-4c58-ad63-0cb290fcd229" x="76.07939" y="96.08942" width="52.59333" height="26.84827"/><polygon class="f79a6c3a-68f9-4e70-a5d1-22f02184c990" points="128.67 76.23 128.67 87.264 118.689 76.23 128.67 76.23"/><polygon class="a6b80925-3108-4c16-a36a-fa76e03291ce" points="128.67 87.264 128.67 122.939 76.076 122.939 76.076 76.23 118.689 76.23 128.67 87.264"/><polygon class="f6d46afc-68df-45e8-9b00-0b313f1f0c23" points="128.67 87.264 118.689 87.264 118.689 76.23 128.67 87.264"/><g id="f8c15c14-6c61-4b8d-af59-54749b92dea0" data-name=" 16" class="fd2ab32e-48bc-4bd9-bf17-647dc856d962"><g class="fd2ab32e-48bc-4bd9-bf17-647dc856d962"><path class="fa18dc6e-8617-49f1-80c6-980694702fea" d="M120.55469,85.72206a.97675.97675,0,0,1-.333-.29882,1.48364,1.48364,0,0,1-.21777-.48829,2.55985,2.55985,0,0,1-.07813-.65527,2.39839,2.39839,0,0,1,.125-.80566,1.19855,1.19855,0,0,1,.36524-.54492.86551.86551,0,0,1,.56445-.19629.89042.89042,0,0,1,.42676.10449.97076.97076,0,0,1,.334.29883,1.4965,1.4965,0,0,1,.21777.4873,2.56227,2.56227,0,0,1,.07813.65625,2.39336,2.39336,0,0,1-.124.80664,1.20153,1.20153,0,0,1-.36524.54492.92088.92088,0,0,1-.99316.09082Zm.85742-.65234a1.67763,1.67763,0,0,0,.1543-.79,1.64675,1.64675,0,0,0-.15723-.78906.46473.46473,0,0,0-.85645,0,2.0512,2.0512,0,0,0,.002,1.57519.46424.46424,0,0,0,.85742.00391Z"/><path class="fa18dc6e-8617-49f1-80c6-980694702fea" d="M123.08008,85.72206a.97675.97675,0,0,1-.333-.29882,1.48364,1.48364,0,0,1-.21777-.48829,2.55985,2.55985,0,0,1-.07813-.65527,2.39839,2.39839,0,0,1,.125-.80566,1.19855,1.19855,0,0,1,.36524-.54492.86551.86551,0,0,1,.56445-.19629.89042.89042,0,0,1,.42676.10449.97076.97076,0,0,1,.334.29883,1.49651,1.49651,0,0,1,.21778.4873,2.56273,2.56273,0,0,1,.07812.65625,2.39336,2.39336,0,0,1-.124.80664,1.20145,1.20145,0,0,1-.36524.54492.92088.92088,0,0,1-.99316.09082Zm.85742-.65234a1.67763,1.67763,0,0,0,.1543-.79,1.64675,1.64675,0,0,0-.15723-.78906.46473.46473,0,0,0-.85645,0,2.05132,2.05132,0,0,0,.002,1.57519.46424.46424,0,0,0,.85742.00391Z"/></g></g><rect id="bdd761e6-d2ca-42c1-a548-8a1e5edf5508" data-name="Rectangle-2" class="eebc7e0b-0fed-49be-ac2f-86f636c5f7bd" x="76.07939" y="118.52428" width="52.59333" height="4.41341"/><g id="bcda0e48-3852-48a8-b238-302a8786a648" data-name="Group 21"><path id="b96c876a-f7e9-4cb4-9ffe-eeaef624cdb2" data-name="Rectangle-3" class="f6d46afc-68df-45e8-9b00-0b313f1f0c23" d="M80.21084,90.75664h28.89954a.77137.77137,0,0,1,.80276.73557v4.04563a.77137.77137,0,0,1-.80276.73556H80.21084a.77137.77137,0,0,1-.80276-.73556V91.49221A.77137.77137,0,0,1,80.21084,90.75664Z"/></g><g id="b702e6f3-2136-410f-b146-8e8d35052c3a" data-name="Group 21"><path id="b94355f0-602a-4154-bb58-6bc62017bbc4" data-name="Rectangle-3" class="f6d46afc-68df-45e8-9b00-0b313f1f0c23" d="M107.55179,109.69761h5.47251c.084,0,.152.32932.152.73557v4.04563c0,.40624-.06806.73557-.152.73557h-5.47251c-.084,0-.152-.32933-.152-.73557v-4.04563C107.39977,110.02693,107.46783,109.69761,107.55179,109.69761Z"/></g></g></svg>