<?xml version="1.0" standalone="no"?>
<!DOCTYPE svg PUBLIC "-//W3C//DTD SVG 20010904//EN"
 "http://www.w3.org/TR/2001/REC-SVG-20010904/DTD/svg10.dtd">
<svg version="1.0" xmlns="http://www.w3.org/2000/svg"
 width="16.000000pt" height="16.000000pt" viewBox="0 0 16.000000 16.000000"
 preserveAspectRatio="xMidYMid meet">
<metadata>
Created by potrace 1.11, written by Peter Selinger 2001-2013
</metadata>
<g transform="translate(0.000000,16.000000) scale(0.002909,-0.002909)"
fill="#000000" stroke="none">
<path d="M2650 4832 c-19 -10 -114 -65 -210 -123 -96 -57 -183 -108 -193 -114
-9 -5 -104 -62 -209 -125 -106 -63 -200 -119 -210 -125 -17 -9 -225 -135 -258
-156 -8 -5 -197 -117 -420 -249 -223 -132 -412 -244 -420 -250 -8 -5 -107 -64
-220 -131 -112 -68 -217 -136 -232 -151 -58 -59 -30 -111 99 -186 36 -20 84
-48 107 -62 23 -14 77 -45 119 -70 42 -25 76 -48 77 -52 0 -5 -69 -50 -105
-68 -5 -3 -70 -40 -142 -83 -242 -143 -243 -182 -13 -315 58 -34 110 -66 117
-72 7 -5 15 -10 18 -10 3 0 25 -13 50 -28 l45 -28 -180 -107 c-186 -112 -220
-141 -220 -187 0 -48 14 -58 421 -300 14 -8 54 -32 90 -53 84 -50 96 -57 146
-89 23 -16 44 -28 48 -28 3 0 24 -12 48 -27 23 -15 55 -34 70 -43 16 -8 119
-69 230 -136 287 -172 812 -486 845 -505 15 -9 130 -77 256 -152 244 -146 287
-166 353 -162 51 4 88 21 233 109 63 38 124 74 135 80 11 6 166 99 345 206
179 107 337 201 351 210 14 8 79 47 143 85 64 39 129 77 144 86 69 41 673 401
807 482 83 50 164 98 182 108 134 75 166 134 105 192 -24 23 -286 187 -299
187 -2 0 -19 10 -37 23 l-33 22 182 109 c184 110 215 137 215 188 0 36 -49 81
-145 132 -11 6 -94 56 -183 110 l-164 98 45 47 c158 162 265 388 283 597 9
104 1 111 -82 73 -111 -51 -287 -59 -369 -17 -22 11 -186 108 -365 215 -179
107 -332 199 -340 204 -8 5 -67 40 -130 77 -735 440 -940 561 -969 570 -49 17
-120 14 -161 -6z"/>
</g>
</svg>
